<?xml version="1.0" encoding="utf-8"?>
<!-- Generator: Adobe Illustrator 23.1.1, SVG Export Plug-In . SVG Version: 6.00 Build 0)  -->
<svg version="1.1" id="Layer_1" xmlns="http://www.w3.org/2000/svg" xmlns:xlink="http://www.w3.org/1999/xlink" x="0px" y="0px"
	 viewBox="0 0 1162 1162" style="enable-background:new 0 0 1162 1162;" xml:space="preserve">
<style type="text/css">
	.st0{fill:#2B3728;stroke:#2B3728;stroke-width:9.380000e-02;}
	.st1{fill:#BFAE48;stroke:#88A148;stroke-width:9.380000e-02;}
	.st2{fill:#BFAE48;stroke:#BFAE48;stroke-width:9.380000e-02;}
	.st3{fill:#88A148;stroke:#88A148;stroke-width:9.380000e-02;}
	.st4{fill:#FFFFFF;stroke:#FFFFFF;stroke-width:9.380000e-02;}
</style>
<g>
	<path class="st0" d="M664,0h6.5c-4.4,9.9-8.7,20-11,30.7c-1.4,5.8-3.8,11.4-5.5,17.1c-3.6,12.2-6.6,24.6-8.9,37.2
		c0,8.3,0.8,16.6,0.2,24.9c0.6-0.1,1.7-0.3,2.3-0.4c0.4-10.1,2.1-20.2,4.7-29.9c1.3,0.1,2.5,0.1,3.8,0.2c-0.5-5.5-1.7-11.1-0.9-16.7
		c0.8-6,3-11.6,4.5-17.4c3.8-15.4,9-30.5,14-45.6h24.2c-2.6,7.2-5.9,14.2-8.5,21.4c-5.5,13.4-9.4,27.3-13.9,41.1
		c-2.2,7.2-6.5,14.1-5.7,21.9c1.8-1,3.9-2.1,4.3-4.4c3.1-11.1,8.4-21.5,11.3-32.7c2-6.7,2.7-13.9,5.7-20.3c4-8.7,5.2-18.4,9-27.1
		h22.2c-1.2,3.2,3.7,2.9,3.5,0h98.5c-4.2,3.9-8.6,7.8-11.7,12.7c3.3-1.2,6.7-2.3,9.4-4.6c2.3-2.3,3.5-5.4,5.1-8.1h44.3
		c-3.4,2.4-6.6,5.2-10.4,7c-2.8,1.5-6,2.5-8.4,4.7c-0.5,1.7-0.5,3.4-0.8,5.1c2.6,0.2,5.4,0.6,7.5-1.3C866.9,10,874.6,4.8,882.6,0
		H909c-6.5,4-13.5,6.8-20.4,9.8c-9.6,4.5-17,12.4-26.1,17.8c-6,3.6-11.7,7.6-17.4,11.5c-5.4,3.7-12.8,5.3-15.7,11.8
		c7.5-2.5,13.9-7.5,21.5-9.9c-1.3,3.2-2.7,6.3-3.9,9.5c6.1-3.9,10.8-9.5,15.5-14.8c6.8-8.4,15.4-15,24.6-20.6c2.7-1.7,6.3,0.3,8.8-2
		c7-5.2,14.8-9.1,22.5-12.9h148.5c3,5,6.3,10,7.7,15.8c0.7,3.2,3.3,5.5,5.5,7.8c-8-0.2-14.8-4.8-22.4-6.8
		c-5.4-0.8-10.3,2.9-15.6,2.6c-3.4-0.4-6.6-1.7-10-1.7c-3.9,0-7.8,0-11.8-0.4c-6.2-0.6-12.1,1.7-18.2,2c-8.1,0.3-16.3,0.5-24.4,1.9
		c-3.3,0.7-7,1.6-9.3,4.2c-2.8,2.9-5.1,6.4-8.5,8.5c-6,3.6-12.9,5.5-19,8.8c0.2,1.3,0.6,2.6,1,3.8c-4.5,6.7-11.1,11.6-18.3,15
		c-2.7,1.4-5.7,2.3-8.1,4.1c-1,1.1-0.4,2.5,0.8,3.1c4.7-1.1,9.1-3.8,14.1-3.4c-5.6,5.1-14,6-18.7,12.2c1.5,0.5,3,1,4.5,1.5
		c-1.9,2.1-3.9,4.2-6.3,5.8c-6.4,3.9-12.1,8.8-18.6,12.5c-5.9,3.7-13,5.1-18.5,9.6c-5.2,3.8-9.2,8.7-13.8,13.1
		c-7.6,6.4-15.5,12.5-22,20c-7.7,10-18.9,17-30.9,21c-6.8,1.5-14.2,1.4-20.8-0.9c0.1-0.6,0.2-1.8,0.2-2.4
		c8.8-4.1,18.7-5.6,26.8-11.2c5.9-4,12.3-7.5,16.8-13.2c-8.2,4-15.6,9.4-23.9,13.1c-5.1,2.2-10.7,2.6-16.2,3
		c-5.2,0.3-10.6,0.4-15.5-1.6c-0.1-0.3-0.2-1-0.2-1.3c4.8-2.6,10.1-4,15.1-6c4.5-1.7,8.5-4.4,12.7-6.9c-7.1,1.2-14.3,1-21.5,1.8
		c-4,0.4-8.1-0.3-11.7-2.3c6.8-6.1,16.7-7.2,23.7-13.2c-5,0.7-9.8,1.8-14.7,3c-6.4,1.7-13.2,0.9-19.7,0.6c0.2-1.9-0.2-4.3,1.9-5.2
		c9-5.5,19.1-8.8,28.5-13.5c2.4-1.2,4.2-3,5.9-5c-2.2-0.4-4.4-0.7-6.6-1.1c1.8-1.4,3.6-2.8,5.5-4.2c0.1-0.6,0.3-1.8,0.4-2.4
		c-9.3,4.4-19,7.9-28.8,10.7c1.6-5.4,6.4-8.6,10-12.5c-7.2-0.2-14.1,1.9-21.1,2.9c4-5.2,10.6-6.9,15.4-11.3
		c-5.7-0.2-11.1,2.2-16.8,2.6c-3.6,0.4-7.4,0.2-10.8,1.4c-4,2.1-6.7,5.9-10.1,8.8c-4.3,4-10.3,5.5-15,9c-5.8,4.2-11,9.1-17.2,12.7
		c2.5-4,5-8.2,8.8-10.9c5.6-4,11.1-8.3,16.8-12.2c5.1-3.5,9.5-8.1,14.9-11.2c4.7-2.8,8.8-6.5,12.4-10.6c3.6-4.1,8-7.5,11.6-11.7
		c-5.4-0.9-8.6,4-12.1,7.2c-4.7,4.9-11.2,7.5-16.9,11.1c-6.4,3.8-12.1,8.6-18.2,12.8c-4.4,3.1-9.4,5.1-13.7,8.3
		c-2.9,2.2-5.9,4.1-8.8,6.2c-3.6,2.4-4.8,6.8-6.6,10.5c-3.1,6.4-4.4,13.4-7.3,19.9c-1,2.1-1.8,4.3-2.5,6.5c-2.2,7.6-6,14.9-7.1,22.8
		c-1,7.4-2.7,14.7-3.6,22.1c-0.7,5.9-3.5,11.3-4.3,17.2c-1.3,10-4.1,19.8-4.2,29.9c-0.3,8.7,0.8,17.5-0.8,26.1
		c-2,11-1.7,22.3-0.5,33.4c0.8,7.2-1,14.4,0.3,21.6c1.4,7.5,1.5,15.5-0.9,22.9c-8.2,13-19,24.5-24.9,39c-1.6,4.1-3.6,8-5.7,11.7
		c-0.8,1.5-1.6,2.9-2.4,4.4c-5.2-1.4-9.2-5-12.5-9.1c-3.8-3.5-6.9-7.8-9.9-12c-3-4.6-4.1-10.2-7.8-14.3c-3.4-3.8-5.6-8.4-8.2-12.7
		c-2.5-4.1-3.6-8.8-6.1-12.9c-3.2-5.5-5.8-11.2-8.2-17.1c-1.8-4.6-1.7-9.6-3.5-14.2c-1.7-4,0.3-8.1,1.4-11.9
		c2.2-6.7-0.5-14,2.4-20.6c0.6-3.5,3.5-5.6,5.8-8.1c4.2-5.1,8.7-10,12.9-15.1c6.9-6.8,14.7-12.7,21.7-19.4
		c5.6-4.8,9.9-10.8,14.9-16.1c4.5-5,7.6-11,9.9-17.3c3.8-7.6,3.4-16.3,4.6-24.5c0.9-4.7,0-9.5,0.7-14.2c0.8-5.3-0.2-10.7-1.7-15.8
		c-1.6-6.8-2.3-13.8-2.6-20.7c-0.5-6.3-1.8-12.6-1.8-19c0-4.7-1.3-9.3-0.7-13.9c0.5-4.2,0.3-8.5,0.7-12.8c0.7-3.9,2.2-7.5,3.4-11.2
		c2-5.5,1.9-11.5,3.9-16.9c3-8.2,3.4-17.4,8.2-24.9C654.1,11.6,661.2,7.4,664,0 M675.6,28.5c-4.1,5.8-4.7,13.1-7.5,19.5
		c-2.5,5.4-3.8,11.1-5,16.9c-0.9,4.3-2.7,8.4-2.8,12.9c0.4,0.5,1.2,1.6,1.6,2.1c5-8.9,5.8-19.2,9.3-28.6c2.2-8.4,3.8-17.2,8.6-24.5
		c2.7-4,5.5-8.1,6.1-13C680.3,16.8,679,23.6,675.6,28.5 M876.8,42.8c-3.8,3.1-5.5,7.8-8.6,11.4c-2.1,2.8-5.4,5.1-5.4,9
		c3.9-1.6,6.8-4.8,10-7.4c2.7-2.3,5.5-4.5,7.9-7.1c5.8-7.1,12.1-14,18.7-20.4c0.1-0.5,0.3-1.6,0.4-2.2
		C891.3,30.4,883.7,36.3,876.8,42.8 M721.8,49.9c0.5,3.3,4.5,1.2,6.3,0.3c3.7-1.4,4.9-5.5,4.9-9.1C727.6,40.4,722.6,44.6,721.8,49.9
		 M713.3,64.3c-3,3-5.1,6.9-7.6,10.4c-2.7,3.8-2.6,8.8-5.6,12.4c-2.1,2.8-3.1,6.2-2.6,9.6c6.8-3.7,13.2-8.1,19.1-13
		c7.9-4.6,15.7-9.8,24.4-13c-0.2-2.6-0.4-5.1-0.6-7.7c-7.5,1-12.8,7.1-19.7,9.5c-5.8,1.8-10,6.4-15.7,8.4c2-3.2,4.5-6.1,7.5-8.4
		c4.2-3.2,8.1-6.7,12.8-9.3c2.1-1.3,4.4-2.4,5.8-4.5c0.3-1.5,0.5-3.4-1.3-4C723.5,56,718.1,60.1,713.3,64.3 M850.7,92.6
		c-3.4,1.8-7.3,2.1-11,2.9c-6.8,1.3-13.3,3.8-19.7,6.6c-3.6,1.7-7.6,2.3-11.2,3.8c-2,0.8-2.1,3.3-2.8,5.1c7.3-2.6,14.8-4.6,21.7-8.3
		c3-1.4,6.7-3.6,9.5-0.5c7.5-2.7,14.6-6.3,21.1-10.9c5-3.5,10.7-5.7,15.7-9.2C865.3,83.2,857.6,87.6,850.7,92.6 M842.4,115.3
		c-2.4,1.1-4.4,3-5.8,5.3c3.6-0.7,7.5-1.1,10.2-3.8c3.3-3.3,7.4-6.3,9.3-10.7C850,106.6,847.6,113,842.4,115.3 M810,130.1
		c6.4-1,12.9-3.6,17.6-8.3c-2.2-0.2-4.4-0.4-6.6-0.3C815.8,121.4,813,126.6,810,130.1 M639.2,200.3c-1.6,4.5-4.1,8.5-6.3,12.6
		c-2.7,5.3-7.8,8.8-10.9,13.9c3.8-0.6,7.5-1.7,10.3-4.5c3.6-3.5,8.1-7,8.8-12.3c0.9-4.9,1.6-9.8,1-14.8
		C640.9,196.8,639.8,198.5,639.2,200.3 M634.4,227.4c-3.4,2.9-5.6,7.1-9.5,9.5c-6.5,4.2-12.4,9.3-19.4,12.6c-4.9,2.2-8.5,6-12.5,9.5
		c-0.2-6.1,5.2-9.7,7-15c-2,0.9-3.8,2.1-5.4,3.7c-4.7,4.9-10.4,9-14,15c-2.6,4.5-7.1,8-8,13.4c-0.4,1.4,0,2.5,1.3,3.2
		c2.5-2,3.1-5.3,4.4-8.1c1.1-2.9,3.3-5.1,5.5-7.2c-0.5,4.1-1.9,7.9-3.1,11.8c-2,7.6-2.3,15.4-2.8,23.2c-0.5,7.1,1.2,14,2,21l2.4-1.2
		c-1.3-7.8-1.1-15.8-0.6-23.7c2.4-6.2,2.3-13,4.7-19.3c4.1-1,6-5.1,8.6-8c4.7-5.7,10.6-10.1,15.9-15.1c6.1-6,13.3-10.8,20.2-15.7
		c4.5-3,11.9-4.9,11.5-11.6C639.8,225.6,636.6,225.4,634.4,227.4 M633.6,247.6c-4.2,6.6-9.4,12.6-15.3,17.7
		c-4.3,4-10.7,4.9-14.7,9.3c-2.2,2.3-4.5,4.6-6.1,7.4c0.1,1.2,0.4,2.4,0.7,3.6c2.9,10,0,20.6,2.1,30.8c1.6,7.1,1.1,15.3,5.8,21.3
		c1.6-5.6-1.1-11.1-1-16.7c0.1-7-0.3-14.2,1.4-21.1c-1-0.7-1.9-1.4-2.8-2.1c0.2-4.4,1.2-8.8,3.5-12.6c2.5-4.3,6.6-7.4,9.9-11.1
		c5.1-5.9,10.7-11.5,14.7-18.3c2.9-4.9,7.2-9.4,8.3-15.2C637.1,242.1,635.3,244.9,633.6,247.6 M594.4,286c-3.9,3.4-4.7,9.1-4.8,14
		c0.2,7.2-0.8,14.7,1.8,21.6c0.3,1.6,3,1.9,3.2,0.1c0.1-2.1-0.5-4.1-0.8-6.2c-1.3-9-0.2-18.1,1.8-26.9
		C595.8,287.8,595.7,284.2,594.4,286 M608.9,295c0.8,0.5,1.7,1,2.5,1.6c0.2,2,0.5,3.9,0.8,5.9c2.9-2.3,3.8-6,5.2-9.2
		c1.1-2.5,2.2-5.1,2.9-7.7C615.1,286.4,612.1,291.2,608.9,295 M584.3,308.2c-1.1,6.4-0.7,12.9,0.9,19.1c-0.3,7.3,4,13.4,6.7,19.9
		c3,5.6,5.4,11.6,9,16.9c1.5,2.2,4.2,3,6.5,4c-2.7-11.6-12.1-20.2-14.6-31.8c-1.1-3.8-4.1-6.8-5-10.7c-1.2-5.7-1.6-11.6-2.3-17.4
		C585.2,308.2,584.6,308.2,584.3,308.2 M595.5,329.6c0.4,6.2,3.1,11.8,5.1,17.6c1.6,5.3,5.8,9.2,7.8,14.3c0.8,2.3,3.1,3.4,5.4,3.4
		c1.5-0.9,0.9-2.7,0.4-4c-2.3-5.5-6.1-10.1-8.5-15.6c-1.7-3.5-2.9-7.2-4.3-10.8C600.6,331.9,597.7,330.9,595.5,329.6L595.5,329.6z"
		/>
	<path class="st1" d="M670.4,0h3.2c-5.1,15.1-10.2,30.2-14,45.6c-1.5,5.8-3.8,11.4-4.5,17.4c-0.8,5.6,0.3,11.2,0.9,16.7
		c-1.3-0.1-2.5-0.1-3.8-0.2c-2.6,9.8-4.3,19.8-4.7,29.9c-0.6,0.1-1.7,0.3-2.3,0.4c0.5-8.3-0.3-16.6-0.2-24.9
		c2.3-12.5,5.3-25,8.9-37.2c1.7-5.8,4.1-11.3,5.5-17.1C661.7,20,666,9.9,670.4,0z"/>
	<path class="st1" d="M697.9,0h2.2c-3.9,8.7-5.1,18.4-9,27.1c-3,6.4-3.7,13.5-5.7,20.3c-2.9,11.2-8.2,21.6-11.3,32.7
		c-0.4,2.3-2.4,3.4-4.3,4.4c-0.8-7.8,3.5-14.7,5.7-21.9c4.4-13.8,8.4-27.7,13.9-41.1C692,14.2,695.3,7.2,697.9,0L697.9,0z"/>
	<path class="st1" d="M722.3,0h3.5C726,2.9,721.2,3.2,722.3,0z"/>
	<path class="st1" d="M824.4,0h2.8c-1.7,2.7-2.8,5.8-5.2,8.1c-2.7,2.3-6.1,3.4-9.4,4.6C815.8,7.8,820.2,3.9,824.4,0z"/>
	<path class="st1" d="M871.6,0h11c-7.9,4.8-15.7,10-23.1,15.5c-2.1,1.9-4.9,1.5-7.5,1.3c0.2-1.7,0.3-3.4,0.8-5.1
		c2.4-2.2,5.5-3.2,8.4-4.7C865,5.2,868.2,2.4,871.6,0L871.6,0z"/>
	<path class="st1" d="M909,0h9.4c-7.8,3.8-15.6,7.8-22.5,12.9c-2.5,2.3-6.1,0.3-8.8,2c-9.1,5.6-17.8,12.2-24.6,20.6
		c-4.8,5.3-9.4,11-15.5,14.8c1.2-3.2,2.6-6.3,3.9-9.5c-7.6,2.4-14,7.4-21.5,9.9c2.8-6.5,10.3-8.1,15.7-11.8
		c5.8-3.9,11.4-8,17.4-11.5c9.1-5.4,16.5-13.3,26.1-17.8C895.6,6.8,902.6,4,909,0L909,0z"/>
	<path class="st2" d="M1066.9,0h5.9c1.2,4.1,1.9,8.2,2.8,12.4c0.7,0.3,2.1,0.9,2.9,1.2c0-2.8,0-5.7,0-8.5c0.5,0.1,1.7,0.4,2.2,0.5
		c1.2,4.5,1.5,9.2,3.2,13.5c2.5,2.9,7.1,4,10.5,2.4c5.5-1.9,8.8-7.1,11.1-12.2c1.4-2.9,0.9-6.2,0.9-9.4h21
		c5.5,2.7,11.1,5.3,15.7,9.5c-3.8,1.5-7.8,3.2-12,2.6c-4.3-0.5-8.6-0.5-12.8,0.1c0.1,0.6,0.2,1.8,0.3,2.3c4.4,1.5,8.8,3,13.1,4.7
		c8.2,3.2,17.4,4.1,24.7,9.5c1.9,1.1,2.2,3.5,3,5.3c-6.6,0-13-2-19.1-4.4c-5.2-1.8-10.4-4.6-16.1-4.2c-4.3,0.4-8.7,0.8-13,1.5
		c-4.2,0.8-5.8,5.5-7.9,8.7c2.1,2.5,3.2,5.6,4.6,8.5c3.9,1.1,8.3,0.2,12,2c1.3,1.2,3.9,2.9,2.7,4.8c-1.6,0.7-3.2,1.1-4.9,1.6
		c-0.3,0.7-0.9,2-1.2,2.7c3.5,1.8,7.3,2.9,10.8,4.5c1.5,0.5,1.7,2.3,2.4,3.6c-2.7,0.1-5.4-0.3-7.9,0.5c-1.5,1.5-2.5,5.1,0.2,5.9
		c4.3,1.2,8.8,1.9,12.4,4.7c-1.1,1.3-2.3,2.6-3.4,3.8c6.4,2.5,13.9,2.9,19.1,7.9c-3.4,0.8-7,1.2-10.5,1.6c4,6.8,13.4,8.3,16,16.2
		c-2.9-0.8-5.7-1.8-8.5-2.8c4.7,4.8,10.4,8.6,15,13.7v5c-2.9-1.9-5.8-3.5-8.9-5c2.7,3.4,5.9,6.4,8.9,9.6v67.3
		c-2.4-3-4.8-6.1-6.3-9.6c-2.8-6.5-6.3-12.6-8.8-19.2c-0.7-2.1-2.7-3.3-4.3-4.5c1.2,11.8,10.6,20.3,13.7,31.4c0.8,3.4,3.1,6,5.8,8.1
		v21.3c-1.2-1.6-2.4-3.1-3.8-4.6c0.1,4.9,1.9,9.5,3.8,13.9V251c-5.1-6.3-7.2-14.2-10.9-21.2c-4.8-8.4-7.1-18.6-14.9-25.1
		c0.8,7.9,6.1,14,9.1,21.1c2.3,5.2,5.9,9.7,7.9,15c2.3,6.2,6.1,11.6,8.8,17.5v9.6c-1,1.2-2.1,2.4-3.1,3.6c-2.1-4.2-4.5-8.4-8.6-10.9
		c-0.1,8.1-0.3,16.8,4.1,24c2.7,4.6,5.2,9.3,7.6,14v6c-5.9-7.2-10.9-15.4-18.6-20.9c-2.2-1.6-4.9-1.7-7.5-2.1
		c0.1,7.5,7.5,10.8,11.4,16.1c4.8,6.4,10.2,12.2,14.7,18.8v2.2c-6.9-5-11.4-12.5-18.7-17c0.9,3.4,1.8,6.8,2.7,10.2
		c-2.6-0.7-5.2-1.4-7.9-2c8.4,8.8,16.2,18.1,23.9,27.5v166.3c-1.9-5-3.3-10.1-5.6-15c-0.3,9.6,4.4,18.6,3.5,28.2
		c-0.3,2,0.4,4.9-2.1,5.7c-2.8-4.1-2.6-9.4-4.9-13.7c-2.8,7.7,0.4,15.9-1.4,23.7c-0.4,0.2-1.3,0.7-1.7,0.9
		c-2.2-6.3-1.3-13.5-4.9-19.4c-1.3,10-0.8,20.2-1.2,30.3c-0.7,0.1-2.1,0.2-2.8,0.3c-0.3-7.5,0.7-15.4-2.8-22.3
		c-2.4,9.6,1.5,19.8-2.4,29c-2.6-8.2-0.8-17.6-6-25c-0.3,4.6-0.5,9.2-1.2,13.8c-0.5,0.1-1.6,0.4-2.1,0.5c-0.5-3.7-1.1-7.4-1.9-11.1
		c-2.1,8.9-1.3,18.2-1.1,27.3c0.8,6.7,0.7,13.6,2.4,20.2c4.1-5.2,1.9-12.2,4.1-18.1c0.6,0.1,1.8,0.2,2.5,0.3
		c1.1,5.5,2.1,11.1,3.5,16.6c1.3,5.3,3.8,10.3,5.1,15.7c1.1,4.5,0.7,9.1,0.3,13.6c-5-4.1-7.6-10.2-11.8-14.9c0.5,6.9,4.8,12.6,7,19
		c1.7,5.1,3.9,10.1,4,15.6c0.1,2.2-1.3,4.1-2.3,6c-4.3-5.9-7.1-12.7-10.7-19c-2.3,5.1,1,10.1,2.8,14.8c1.9,5,4.3,9.7,6.2,14.6
		c1.3,2.8-1.6,5-3.2,7c-1.6-4.1-3.2-8.2-6-11.7c-3.6-4.5-5.2-10.1-8.3-14.8c-0.9,4,1.6,7.6,3.2,11.1c2.5,4.8,4.3,9.9,5.3,15.2
		c0.9,5.6,5,9.8,7.7,14.6c1.9,3.4,3.9,6.7,6.3,9.7c3.3,4,4.1,9.2,6,13.8c1-13.7-7.7-26-6.6-39.7c1.1,1.8,2.1,3.7,2.9,5.7
		c3.6,9.6,9.2,18.3,14.8,26.8c-3.5-14.7-11.6-27.9-13.9-42.9c0.7,0.1,1.9,0.3,2.6,0.5c1.6,5,3.3,10.2,6.5,14.5
		c2.4,3.2,5.3,5.9,8.2,8.6v147.8c-2,5.5-5.2,10.6-7,16.3c-1.5,5.2-5.6,9-8.6,13.4c-3.4,4.9-7.3,9.3-11.5,13.6
		c-1.3,1.1-2.8,2.8-4.7,2.2c-3-1.3-4.8-4.1-6.7-6.6c-3.7-5.3-8-10.1-11.6-15.4c-3.4-4.8-3.1-11-4.5-16.4c-0.9-4.8-3.6-9.3-3.1-14.2
		c0.5-4.5,0.3-9-0.2-13.5c3.3,5.2,6.2,10.7,8.3,16.5c1.4-0.1,2.9-0.2,4.3-0.2c3.7,5.3,7,10.9,12.2,14.8c4.4,3.5,9.5,6,14.9,7.3
		c-4.5-6.5-10.6-11.6-15.5-17.7c-3.1-3.7-7.2-7.1-8-12.2c3.2,1.4,5.4,4.2,7.5,6.8c1.3,1.9,3.7,2,5.7,2.8c3.5,1,6.4,3.4,9.5,5.2
		c-2.3-6.6-8.7-10.1-13.1-15c-4.7-4.6-7.6-10.6-12.2-15.3c0.4,4.6,1,9.2,1.3,13.8c-5.7-2.5-6.2-9.3-8.2-14.4
		c-3.6-11.7-9.5-22.6-12.4-34.5c-1.2-4.6-3.1-8.9-4.7-13.4c-2.1-5.6-2.3-11.7-4.8-17.2c-4.2-9.3-9.7-17.8-13.8-27.1
		c-1.8-4.3-4.8-7.9-7-12c-1.6-2.7-0.6-5.8,0-8.6c4.8,3.4,7.8,8.7,11.2,13.3c3.5,6.8,6.9,13.8,12.2,19.4c-0.4-2.8-1.4-5.4-2.7-7.9
		c-2.3-4.7-2.7-10.1-5.6-14.5c-3.8-5.8-7.7-11.5-11.8-17.2c-2.2-2.7-2.7-6.1-2.7-9.5c4,1.7,6,5.7,7.8,9.5
		c2.6,5.7,5.7,11.3,10.6,15.5c-1.5-7-5.9-12.8-9.1-19c-2.4-4.7-7-8.2-8.2-13.5c-1.9-10.1-6.6-19.4-12.4-27.8
		c-2.4-3.5-4.3-7.6-7.7-10.3c-3.3-2.7-7.5-4.5-9.7-8.2c-1.8-3.1-3.7-6.2-6.5-8.5c-1.6,12.4,8.1,21.8,11.7,32.9
		c-3.7-2.7-6.7-6.2-10.5-8.8c2,6,6.5,10.6,9.9,15.7c2.7,4,5.4,8,7.7,12.2c2,3.6,1.3,7.8,1.2,11.7c-4.3-4-6.9-9.5-11.2-13.5
		c1.8,6.7,4.2,13.1,6.3,19.6c1.1,3.6,4.1,5.9,6.2,8.9c0.7,1.9,0,4,0.1,5.9c-2.3-1.7-4.6-3.5-6.8-5.3c0.4,2.8,0.8,5.6,1.9,8.2
		c1.6,4,4.4,7.5,5.2,11.8c0.7,3-0.1,5.9-0.8,8.8c-3.7-3.4-6.7-7.4-10.1-11c1.5,4.8,3.4,9.6,6.2,13.8c2.1,3.3,4.7,6.2,6.2,9.8
		c1.1,2.5,0.6,5.3,0.4,8c-2.2-1.8-4.4-3.6-6.9-5c1.5,7,5.5,13,7.8,19.6c2.5,7.2,6.3,13.9,7.7,21.4c1.2,6.7,3.9,12.9,5.3,19.5
		c-5.6-8.1-8.5-17.6-12.7-26.5c-0.4-0.1-1.3-0.3-1.7-0.4c0.9,5.5,0.9,11.2,1.1,16.8c0.2,6.2,4.1,11.5,4.1,17.7
		c-3.7-3.8-6.3-8.4-8.4-13.2c-0.5,0-1.4,0.1-1.8,0.1c2.9,8.5,4.5,17.3,7.5,25.8c1.1,3.2,3.1,6.1,4.2,9.3c1.3,3.7,1.3,7.7,1.9,11.6
		c2,11.4,4.5,23,3.6,34.6c0,2.1-1.6,3.6-2.8,5.2c-2-7.2-0.8-14.8-1.4-22.2c-0.3-4.5-1.8-8.8-3.2-13.1c-0.1,7.4,0,14.8,0.8,22.2
		c0.6,5.6-1.4,11.1-4.1,15.9c-1.8-2.2-3.5-4.5-5-6.9c-1.7,2.8-3.7,5.5-6,8c-2-2.1-3.3-4.7-3.4-7.6c1.4-0.1,2.9-0.1,4.3-0.1
		c0.8-5.3,1.8-10.6,2.8-16c-0.4-0.4-1.4-1.1-1.8-1.5c-1.7,4.9-0.8,11.1-5,14.9c-1.8-3.2-0.7-7-0.6-10.4c0.5-4.6-1.4-8.9-2.6-13.2
		c-0.9-3.3-2.3-6.5-4.1-9.5c0.4,8.2,1.7,16.4,2.2,24.6c-4.4-4.1-3.2-11.4-8.8-14.5c-2.5-2.5-6-2.2-9.2-1.6
		c-3.4-3.1-6.5-6.8-10.9-8.5c1.7,3.5,4.6,6.3,6.6,9.7c1.2,2.6-2,4-3.4,5.7c-4.9-3.5-9.9-7-15.9-8.2c0.2,4.6,3.7,8.2,4.3,12.7
		c-6-3-8.1-10.1-13.6-13.8c1.2,3.2,2.7,6.2,3.9,9.4c-2.6-1.8-5.2-3.9-6.3-7c-1.6-4.1-3.2-8.3-6.5-11.5c1,3.9,2.1,7.7,2.9,11.7
		c-3.9-3.2-5.5-8.1-8.8-11.8c0.7,4.1,1.8,8.2,2.7,12.2c-2.2-0.6-5.3-0.1-6.4-2.6c-2.1-3.9-3.3-8.2-6.2-11.7
		c0.7,5.8,2.6,11.3,3.7,17.1c-0.6-0.1-1.9-0.2-2.5-0.3c-2.4-4.8-4.8-9.6-8.3-13.6c0.6,4.6,1.5,9.2,1.8,13.9c-2.8-2.5-5-5.5-6.9-8.7
		c0.1,3.3,0.2,6.6,0.3,9.9c-1.4-0.1-2.8-0.2-4.1-0.3c-2.4-4.5-4.8-9-8.2-12.8c0.2,4.2,1,8.4,1.4,12.6c-4.5-0.9-7-4.8-8.7-8.7
		c-0.5-0.1-1.4-0.3-1.9-0.4c1.4,4.7,4.5,8.9,5.2,13.8c-4.6-1.3-7.6-5.3-11.9-7.3c0.4,2.9,0.9,5.8,1.3,8.7c-3.5-2.5-6.5-5.6-9.6-8.5
		c-1.6-1.7-4-1.6-6-2c2.4,3.6,5,7,7.3,10.7c-2.5-0.1-5,0.2-7.4-0.6c-1.7-1.5-2.9-3.5-4.2-5.3c-0.2,1.9-0.4,3.8-0.6,5.7
		c-2.1-1.2-4.2-2.5-6.3-3.6c-0.2,2.6-0.5,5.1-0.8,7.7c-2.2-1.3-4.2-2.7-6.3-4.2c-0.3,3.5-0.6,7-1,10.4c-0.6,0.1-1.9,0.3-2.5,0.4
		c-1.3-1-2.7-2.1-4-3.1c-1.1,2.2-2.1,4.4-3.2,6.6c-1-1.9-1.9-3.8-2.8-5.7c-2,3.2-4.6,6.2-8.4,7.4c-0.5-1.8-0.9-3.6-1.4-5.5
		c-2.5,2.5-5.2,4.8-8.4,6.3c-0.5-1.4-1-2.8-1.5-4.2c-2.5,1.8-5,3.5-7.5,5.2c-0.6-2.1-1.2-4.2-1.8-6.3c-2.8,3-5.5,6.2-9.4,7.9
		c0.1-2.6,0.3-5.2,0.6-7.7c-0.4-0.3-1.1-0.9-1.5-1.2c-2.1,3-4.3,5.9-6.8,8.5c-0.3-2.8-0.5-5.6-0.7-8.5c-2.8,1.5-5.7,3-8.5,4.5
		c-0.9-1.7-1.9-3.4-2.8-5.1c-2.1,1-4.2,2-6.3,2.9c0.3-2,0.6-4,0.9-5.9c-2.3,1-4.6,1.9-6.9,2.8c0-3.3,0.4-6.6,0.9-9.9
		c-1.8,1.2-3.6,2.6-5.7,3.4c-2-0.2-3.5-1.6-5.2-2.5c1.8-3,3.6-5.9,5.8-8.6c4.5-5.9,8.1-12.4,13.1-17.9c2.3-2.8,6.1-3.2,9.4-3.7
		c6.6-0.7,13.2-2,19.8-0.9c9.9,1.7,19.8,2.7,29.8,3.8c6.4,0.7,11.9,5,18.4,5.3c1.7-0.4,5.4-1.1,4.5-3.5c-4.4-1.4-9.1-2-13-4.8
		c4.1-0.7,9.1,0.4,12.4-2.7c3.4-2.8,7.2-5,11.1-6.9c5.6-2.8,12.3-2.2,17.7-5.4c5.7-3.3,12-6.2,15.6-11.9c-3.6,0.2-7.3,0.7-10.9,0.7
		c2.6-2.5,6-3.7,9.2-5c3.3-1.3,5.9-3.8,8.4-6.2c-11.3-1.1-20.4,6.7-30.8,9.2c-10.2,4.1-21,6.4-31.9,7.8c-9.8,1.1-19.5,3.5-29.4,3.2
		c-13.7-0.2-27.3,0.3-41-0.6c-6-0.4-12.2,0.2-18-1.6c1.4-2.4,2.8-4.9,4-7.4c-3.7,1.3-6.3,5.5-10.5,5c2-3.3,4.2-6.5,5.5-10.1
		c-4.6,2.6-6.8,8.5-12.5,9.5c0.8-4,3.1-7.6,3.2-11.8c-2.9,2.8-5.5,6.1-9.2,7.9c1.1-5.7,6.5-8.7,9.6-13.3c-5.9,2.4-9.5,8-15.4,10.3
		c1.8-5.4,5.2-10.2,7.2-15.6c-3.8,2.3-7.3,5-11.1,7.4c2.4-4.1,5.5-7.8,7.5-12.1c-4.3,2.2-8.5,4.9-11.8,8.4c-1.9,1.9-3.5,4-5.6,5.7
		c-2.8,0.6-1.4-2.7-0.6-4c4.2-5.1,10-8.7,14.1-13.9c-4.6,2.2-9,4.9-13.5,7.3c-0.5-1.5-1-3-1.5-4.6c6.8-4.4,13.7-8.7,21.2-11.6
		c5.6-2,11.7-1.9,17.5-1.7c6.4,0.4,12.5,2.8,18.8,3.8c5.8,0.9,11,3.8,16.7,4.8c5.2,1,10.7,1.2,15.8-0.2c9.1-2.2,18.2-5.3,27.7-5.7
		c6.1-0.1,12.1-1.2,18.2-1.6c8.2,0.1,16.4,2,24.7,1.5c7.2-0.4,14.4-0.3,21.4,1.5c10.5,2.8,21.5,3.6,32.1,5.9
		c6.5,1.6,12.1-2.8,18.3-3.7c3.2,2.2,2.3,6.8,4.4,9.8c2.5,2.3,5.7,3.5,8.5,5.4c3.8,2.5,6,6.7,9.4,9.6c5.7,5,12.8,8.5,16.8,15.2
		c1.9,3.3,4.5,6.3,8,8.2c-1.8-4.7-4-9.3-6.5-13.8c-2.8-4.7-7.5-7.8-11.5-11.4c-4-3.6-10.8-4.9-11.7-11c5.5,3.4,10.8,7.2,16.7,10
		c-4.2-7.9-13.3-11-18.3-18.1c6.3-0.1,9.6,6.1,15.5,7.2c-3.3-5.4-8.5-9.3-13.9-12.4c-2.8-1.9-6.6-3.3-7.4-6.9c3.2,0.4,6.2,1.7,9.1,3
		c-2.5-3.9-5-8.4-9.6-10.1c-3.8-1.3-8-1.6-11.4-4c4.3-0.9,8.8-0.3,13.2,0c-0.9-2.5-1.6-5.3-3.9-6.9c-4.2-3.3-9.1-5.8-12.3-10.2
		c1.1-1,2.2-2,3.3-2.9c-4.2-0.9-9.1-0.6-12-4.3c1.7-1.2,3.4-2.3,5.1-3.5c-3.6-0.9-7.3-1.8-10.8-2.9c0-1.2,0-2.4,0-3.6
		c-3.3,0-6.6,0-9.9,0.1c3.7,5.4,6.7,11.4,11.8,15.7c-0.8,2-2.2,4.2-0.9,6.3c2.1,4.6,4.4,10.5,1.1,15.1c-2.8,2.7-6.1,5.2-9.9,6.3
		c-4.6-0.3-9.1-1.1-13.7-0.8c-10.2,0.5-19.9-3.1-30-3.7c-9-0.5-17.8-3.1-26.7-4.7c-5.9-1.1-11.4-3.9-17.4-4.7
		c-6.7-1-13.4-3.3-20.3-2.2c-4.4,0.2-4.9,5.7-8.4,7.4c-4,2.1-8.2,5.4-13,4.3c-4.4-1.4-8.1-4.5-12.3-6.4c-4.8-2.6-10.3-3.8-14.8-7.2
		c2.8-0.5,5.6-0.5,8.3-0.3c0-3,1.2-5.7,1.9-8.5c-0.4-2-1.6-3.9-2.5-5.7c1.4,0.1,2.9,0.3,4.3,0.4c-1.2-3.3-2.5-6.5-3.6-9.8
		c2.4,1.2,4.8,2.5,7.2,3.8c-1-3.4-2.5-6.7-2.6-10.3c1.8-1.5,3.9-2.6,5.9-3.8c-0.2,2.3-0.7,4.7-0.3,7c1,2,3.1,3.1,5,4.3
		c4.3,2.3,8.6,4.8,12.8,7.3c0.7,2,1.3,3.9,2,5.9c2.6-4.4,5.4-8.9,6.3-14c1-5-0.1-10.3,1.9-15.2c1.7-4.1,3.6-8.1,4.7-12.4
		c-2.8,1.6-5.2,3.8-8,5.3c-1.7,0.2-2.8-1.8-4.2-2.6c4.2-3.3,8.6-6.6,11.8-11c2.4-2.8,4.9-7,9.3-6.1c8.6,1.1,17.4,2.3,25.5,5.5
		c2.7-3.9,2.6-8.7,2.2-13.2c8.2-0.5,15.6-5.3,20.5-11.8c2.3-3.6,2.7-8.1,5.3-11.6c1.4-0.8,2.9-1,4.4-1.3c1-2.5,1.9-5,2.8-7.4
		c4.5,8.6,9.1,17.3,15.6,24.6c3.1,3.3,7.3,5.3,10.6,8.3c3.5,3.2,8.3,4.2,11.9,7.2c9,7.8,12.9,20.1,22.7,27.1c7,2.9,15,2.4,22,5.4
		c4.4,2.1,6.4,7.3,11,9c4.6,0.8,9.2-0.8,13.6-2.1c0-1.3,0-2.6,0-3.9c-4.9,0-10.3,1.9-14.8-0.9c4.2-3.9,10.8-5.4,12.8-11.3
		c-2.2-0.1-4.4-0.1-6.6-0.2c2.1-2.5,3.4-5.5,4-8.7c-7.9,3.6-16.1,7-25,6.9c0-0.7,0.1-2,0.1-2.7c3.8-0.6,7.9-0.7,11.5-2.5
		c4.3-2.5,6.4-7.3,8.3-11.7c-7.8,2.3-15.6,5-23.3,7.7c-1.9,0.6-4,1.4-5.9,0.4c-4.5-2.3-8.7-5.4-13.2-7.8c-3.4-2-7.2-3.3-10.1-5.9
		c-0.2-1.8,0-3.6,0.1-5.3c-2.4-1.6-4.7-3.2-7-4.9c0.7-1.7,1.4-3.5,2.2-5.2c-3.7-2.1-7.5-3.9-11.4-5.5c-0.1-0.5-0.2-1.5-0.3-2
		c2.8-0.2,5.7-0.5,8.5-0.9c-4.3-4.4-11.8-2.8-15.5-7.9c1.3-1.2,2.6-2.2,3.9-3.4c-4.2-2.1-8.3-4.2-12.2-6.7c1.5-0.9,3.1-1.9,4.6-2.8
		c-2.8-1.7-5.6-3.3-8.5-4.9c0.3-1.9,0.5-3.8,0.8-5.7c-5.3-4-11.5-6.6-17.4-9.4c2-0.6,4-1.2,5.9-1.8c-3.9-2.5-8.5-3-12.9-3.9
		c0.8-1.8,1.5-3.5,2.3-5.3c-5-0.5-11.2-0.7-14.1,4.2c2.5,2.7,7.3,1.7,9.6,4.8c2.2,4.6,0,10.2,2.2,14.9c1.6,3.6,4.4,7,4.2,11.2
		c-0.4,5.7-4.5,10-6.9,14.8c-2.3,4.5-4.7,9.4-9.3,12c-2.1,1.3-4.6,0.3-6.7-0.5c-4.1-1.9-7.9-4.6-12.4-5.3c-7.5-1.2-15.1-2.1-22.7-1
		c-7,0.7-13.9,3.8-21.1,2.4c3.6-2.9,7.6-5.8,9.4-10.2c-6.6,1.8-12.2,5.8-18.9,7.4c-9.7,3.1-20.4,5-30.3,1.6c-7.1-2.5-14.9-3.4-21-8
		c-4.2-3.1-6.1-8.2-8.6-12.5c-1.4-2.7-3.3-5.3-3.4-8.5c0-3.3,0.8-6.5,1.6-9.7c3.2-10.6,5.8-21.4,7.8-32.2c0.7-2.3-0.2-4.6-1.7-6.4
		c1.9-5.9,4.1-11.8,5.5-17.8c1.8-7.1,6.1-13.1,8.9-19.8c1.9-4.3,3.1-8.9,4.6-13.4c1.8-5.4,4.8-10.2,6.3-15.7
		c3.6-13.2,9.8-25.6,16.7-37.4c2.9-5,6.7-9.8,7.3-15.8c0.5-3.3-0.2-6.8,1.1-9.9c2.3-4.2,5.7-8.1,10.4-9.5c6.8-2.2,13.8-4.3,21-4.9
		c6.1-0.6,12.2,0.1,18.4-0.5c-14.9-9-33.7-6.7-49.2-0.6c-2.1-7.1-1.5-14.7,1-21.6c2.4-6.4,3.2-13.4,6.8-19.3c3-5,5.8-10.2,8.9-15.2
		c2.2-3.5,1.8-7.8,3.3-11.6c1.8-4.7,4.2-9.2,5.2-14.2c-2.7,1.4-5.2,3.2-7.6,5.1c-0.9-1-1.8-1.9-2.7-2.9c-0.4,2.2-0.7,4.4-1,6.6
		c-1.2,0-2.4,0-3.7,0c0,5.2,2,10.9-0.9,15.7c-1.3-4.1-2-8.3-2.9-12.5c-3.6,2.9-2.9,7.7-3.4,11.7c-1.1-2.1-2.2-4.3-3.1-6.5
		c0,4-0.8,8-2.1,11.8c-1.9-1.8-3.5-3.8-4.9-6c-1.4,1.8-3.7,3.2-4.2,5.4c0.9,3.9,2.8,7.6,3,11.6c-2.3-1-4.4-2.5-6.1-4.2
		c-1.7,4.3-3.2,8.7-3.8,13.3c-3.2-3.2-6.5-6.4-9.3-10.1c-3.7-5.1-9.3-8.2-14.3-11.8c-2.9-2.7-6.9,1.6-9.8-1
		c-5.1-3.6-9.7-7.7-15.1-10.8c1.4,2.7,2.8,5.3,4,8.1c-8-2.5-13.8-9.1-21.6-11.9c1.2,3.5,2.9,6.7,4.2,10.1c-6.3-1.4-9.8-7.8-16.1-9.2
		c0.8,2.1,1.6,4.1,2.4,6.2c-4.5,0.4-7.9-2.6-11.4-4.8c-3.2-2.2-7.3-1.2-10.8-0.7c7.1,5.6,15.6,9.2,21.8,16c-2.8,0.1-5.9,0.8-8.2-1.2
		c-3.4-2.6-6.6-5.5-10.3-7.7c-5-3.3-11-4.6-16.8-6c1.2,1.9,2.5,3.7,3.7,5.6c-6.8-0.8-13.6,0.4-19.8,3.3l-2.1-2.9
		c-1.7,1.8-3.4,3.5-5.1,5.2c0.3-2.6,0.6-5.2,1-7.8c-1.9,1-3.8,2-5.9,2.6c0.3-2.3,1.9-4.1,3.2-5.9c3.2-4.1,6.3-8.4,10.5-11.5
		c3.9-3.1,8.8-5,12.2-8.8c4.4-4.9,7.7-11.2,8.2-17.9c-7.3,0.7-11.3,7.4-15.7,12.4c-3.9,4.3-6.4,9.5-9.9,14.1
		c-6.9,8.1-12.4,17.4-19.8,25.2c-6.5,7.3-13.4,14.4-17.7,23.3c-1.8,3.8-4.1,7.7-4.5,12c2.3,4.9,6.3,8.8,9.8,12.9
		c3.9,4.6,10.1,5.9,14.6,9.6c0.3,1.9-0.9,3.6-1.5,5.3c-8.2-4.1-13.6-11.7-20.4-17.5c-0.7-2.1-1.4-4.1-2-6.2
		c-0.7-0.2-1.4-0.4-2.2-0.6c-0.1,1.7-0.3,3.3-0.5,5c-0.6-0.4-1.9-1-2.5-1.4c-0.1-2.3,0.1-4.6,0.2-6.9c-1-0.4-1.9-0.9-2.9-1.3
		c2.2-3.8,4.2-7.7,5.7-11.7c5.9-14.4,16.7-25.9,24.9-39c2.4-7.3,2.3-15.3,0.9-22.9c-1.3-7.2,0.5-14.4-0.4-21.6
		c-1.1-11.1-1.5-22.4,0.5-33.4c1.6-8.6,0.5-17.4,0.8-26.1c0.1-10.1,3-19.9,4.2-29.9c0.8-5.9,3.5-11.3,4.3-17.2
		c0.9-7.4,2.6-14.7,3.6-22.1c1.1-8,4.9-15.2,7.1-22.8c0.7-2.2,1.6-4.4,2.5-6.5c2.9-6.4,4.2-13.5,7.3-19.9c1.8-3.7,3-8.1,6.6-10.5
		c2.9-2,5.9-4,8.8-6.2c4.3-3.2,9.3-5.3,13.7-8.3c6.1-4.2,11.8-9,18.2-12.8c5.7-3.6,12.2-6.1,16.9-11.1c3.5-3.2,6.7-8.1,12.1-7.2
		c-3.6,4.2-8,7.6-11.6,11.7c-3.6,4.1-7.7,7.8-12.4,10.6c-5.4,3.1-9.7,7.7-14.8,11.2c-5.7,3.9-11.2,8.2-16.8,12.2
		c-3.9,2.8-6.3,7-8.8,10.9c6.2-3.6,11.5-8.5,17.2-12.7c4.7-3.5,10.6-5,15-9c3.4-2.9,6.1-6.7,10.1-8.8c3.5-1.2,7.2-1,10.8-1.4
		c5.7-0.4,11-2.8,16.8-2.6c-4.7,4.3-11.4,6.1-15.3,11.3c7-1,13.9-3.1,21.1-2.9c-3.7,3.9-8.5,7.1-10,12.5c9.9-2.8,19.6-6.3,28.8-10.7
		c-0.1,0.6-0.3,1.8-0.4,2.4c-1.9,1.4-3.7,2.8-5.5,4.2c2.2,0.3,4.4,0.7,6.6,1.1c-1.7,1.9-3.6,3.8-5.9,5c-9.4,4.7-19.5,8-28.5,13.5
		c-2.1,1-1.7,3.4-1.9,5.2c6.6,0.3,13.3,1.1,19.7-0.6c4.8-1.2,9.7-2.3,14.7-3c-7,5.9-16.9,7-23.7,13.2c3.5,2,7.7,2.7,11.7,2.3
		c7.1-0.8,14.4-0.6,21.5-1.8c-4.1,2.5-8.1,5.2-12.6,6.9c-5,2-10.3,3.4-15.1,6c0,0.3,0.2,1,0.2,1.3c4.9,1.9,10.3,1.9,15.5,1.6
		c5.5-0.4,11.1-0.8,16.2-3c8.3-3.6,15.8-9.1,23.9-13.1c-4.5,5.7-11,9.2-16.8,13.2c-8.1,5.6-18,7.2-26.8,11.2
		c-0.1,0.6-0.2,1.8-0.2,2.4c6.7,2.3,14,2.4,20.9,0.9c11.9-3.9,23.1-10.9,30.9-21c6.5-7.5,14.4-13.6,22-20c4.6-4.4,8.7-9.3,13.8-13.1
		c5.4-4.5,12.6-5.9,18.5-9.6c6.5-3.7,12.2-8.6,18.6-12.5c2.4-1.5,4.4-3.6,6.3-5.8c-1.5-0.5-3-1-4.5-1.5c4.7-6.2,13.2-7.1,18.7-12.2
		c-5-0.4-9.4,2.2-14.1,3.4c-1.2-0.6-1.8-2-0.8-3.1c2.4-1.8,5.4-2.8,8.1-4.1c7.2-3.4,13.8-8.3,18.3-15c-0.4-1.3-0.8-2.5-1-3.8
		c6.2-3.3,13-5.2,19-8.8c3.5-2.1,5.8-5.6,8.5-8.5c2.4-2.6,6-3.5,9.3-4.2c8-1.4,16.2-1.6,24.4-1.9c6.1-0.2,12.1-2.5,18.2-2
		c3.9,0.4,7.8,0.4,11.8,0.4c3.4,0,6.6,1.2,10,1.7c5.4,0.3,10.2-3.3,15.6-2.6c7.6,2,14.4,6.6,22.4,6.8c-2.2-2.3-4.8-4.5-5.5-7.8
		C1073.1,10,1069.9,5,1066.9,0 M1099.9,31.2c2.5-2.6,4.3-5.8,7-8.1c2.8-1.6,5.9-2.5,8.7-4c-1.9-1.5-3.8-4-6.5-3.8
		C1103.3,18.2,1099.5,24.6,1099.9,31.2 M894.3,100.3c-4.1,3.8-9.8,5.3-14,9c-4.6,3.9-10.7,6.8-13.1,12.7c1.9,0.2,3.9,0.3,5.8,0.5
		c-5.4,4.4-10.1,9.6-15.3,14.2c-4.9,5-11.3,7.9-16.8,12.2c-5.5,4.4-12.1,7.2-17.9,11.1c-5.5,3.3-9.9,8.1-14.1,12.9
		c-3.5,4-5,9.4-8.7,13.3c-2.5,2.6-5,5.3-6.2,8.8c4.3-1.8,7.6-5.1,11.6-7.4c7.4-4,14.7-8.1,22.3-11.7c6.9-4.1,14.2-7.6,21.9-10
		c6.2-1.7,11.2-6.1,14.9-11.1c3.3-5,6.1-10.4,10-15c3.8-4.2,5.2-10,8.5-14.5c2.9-4,5.5-8.3,9.3-11.7c3.7-3.4,10.2-2.4,12.6-7.3
		c-4-0.3-7.9-0.1-11.9,0.1c1.3-2.7,3.5-4.8,6.5-5.7c4.8-1.4,7.5-5.9,10.2-9.7C904,92.6,898.8,96.2,894.3,100.3 M723.1,109.1
		c-3.2,2.4-7.8,0.5-10.9,3.1c-3.7,2.7-6.1,6.8-8.4,10.7c-6.4,8.7-12,18.1-17.4,27.5c-2,5.7-6.8,10-8,16c-1.4,6.4-5.7,12-6,18.7
		c-0.8,9.6-1.1,19.3-2.6,28.9c-0.7,17,1.6,34,0.4,51c-0.4,4.6-0.4,9.2-0.7,13.8c-0.4,4.4,1.3,8.7,1.3,13.1c0,9.2,0.4,18.9-3.1,27.6
		c-2.2,3.9-5,7.8-4.2,12.6c1-0.5,2.3-0.8,3.1-1.6c4.5-5.8,8.1-12.2,11.1-18.9c1.3-3.9,6.3-3.5,8.4-6.6c3.7-4.9,7.6-9.9,12.8-13.3
		c5.7-4.7,13.6-3.7,20.2-6.5c8.6-3.3,18-2.6,27.1-2.6c3.6-0.1,6.9,1.4,9.4,3.9c2.8,2.9,7.3,3,10.1,5.9c3.1,3.2,7.2,4.9,11,7
		c5.2,2.9,10.8,5,16.6,6.2c7.5,1.6,15,5.5,22.8,3.3c-6.8-4.6-12.6-11-20.8-13.3c-8.5-2.5-17.1-4.7-25.2-8.5c-6.3-2-12.1-5.6-18.9-6
		c-7.6-0.9-14.4-5-22-5.6c-4.7-0.3-9.4-0.2-14.1,0.4c-7.6,0.9-13.9,5.6-21,7.8c1.5-1.9,3.1-3.7,4.8-5.5c-2.6-0.6-5.3-0.4-7.9-0.1
		c2.2-2,4.5-4,7.3-5.2c11.9-5.3,25.1-6.3,38-5.8c4.7-0.1,8.3,3.5,12.6,4.9c9.4,3.1,17.6,9.1,27.2,11.9c7.5,2.6,15.2,5,23.1,5.7
		c-1.2-1.4-2.5-2.7-3.7-4c0.1-1.2,0.3-2.4,0.4-3.6c-6.3-2.2-12.7-4.2-19.2-5.6c-7.9-1.7-15.1-5.3-22.4-8.6c-4-1.8-8.9-1-12.4-3.8
		c-3.6-2.8-8-4.2-12.3-5.4c-7.1-1.7-14.3,0.5-21.4,0.4c-3.5,0.1-7.3-0.4-10.6,1c-3.5,1.4-6.9,3.2-10.6,4.1c1-3,2.1-6,4.2-8.5
		c2.5-3,6-5.6,6.1-9.8c-2.6,0.1-5.5-0.4-7.8,1.1c-2.3,1.4-4.3,3.2-6.6,4.8c1-6,7.6-8.1,10.3-13.1c1.7-2.6,4-6.9,1-9.4
		c-3.9,1.8-7.2,4.7-11.2,6.4c1.2-4.1,5-6.5,7.3-9.8c1.9-2.4,3.1-5.2,4-8.1c-5.6-1.1-9.8,3.1-13.5,6.6c-2.4-3.6,1.2-6.5,4.3-7.9
		c4.9-2.2,8.4-6.3,11.8-10.4c1-0.9,1.4-3.7-0.6-3.6c-5.2-1.1-10.2,1.6-15.4,2.1c2.1-6.1,8.1-9.6,12-14.4c1.2-2.1,1.7-4.6,2.4-6.9
		c-3.5-0.1-6.6,1.7-10,2.6c0.9-3.4,2.3-6.8,5-9.1c4-3.5,7.5-7.5,10-12.2c-1.1-0.6-2.3-1.1-3.4-1.7c2.3-4.1,4.8-8.1,7.8-11.9
		c1.3-1.4,1.1-3.4,1.1-5.2c4.7-5.9,11.6-9.5,16.2-15.5c3.6-4.5,8.5-8,11.3-13.1c-1.7,0.1-3.3,0.7-4.4,1.9
		c-5.5,5.1-10.7,10.6-16.3,15.5c-1.5-3.4-5.3-3-8.4-3.3c2.7-5.4,8.2-8.5,12.8-12.2c4.9-3.8,8.4-9,13.5-12.5c4.3-2.9,8-6.6,11.8-10.1
		C733.8,97.6,729.3,105,723.1,109.1 M1140.3,176.8c0.3,6.8,6.2,11.3,7.3,17.8c1.5,6.6,5.9,12,8.6,18.1c0.3-0.2,1-0.5,1.4-0.7
		c-2.2-3.7-3.4-7.9-4.7-12.1c-1.5-5.3-5.4-9.5-7.3-14.6C1144.4,182.2,1142.9,179.1,1140.3,176.8 M786.7,227
		c6.5,8.3,17.8,10.3,27.6,11.6c-2.9-2.6-6.6-3.9-10-5.9C798.9,229.7,793.1,226.5,786.7,227 M746.3,241.1c0,0.6,0,1.7,0.1,2.3
		c10,3.6,20.5,5.9,29.6,11.6c4.5,4.2,10.8,5.6,15.5,9.5c6.9,5.4,15.5,7.6,23.7,10.2c5.3,1.6,10.7,3.2,16.3,3.8c1.7,0.2,4.5,0,4-2.5
		c-3-2.7-7.4-2.9-10.9-4.6c-6.5-3-12.8-6.3-19.8-8.2c-7.5-2.1-13-8.2-20.4-10.6C772.1,247.6,759.4,243.5,746.3,241.1 M877.3,257.2
		c-5.5,2.1-9.9,6.7-11.5,12.5c3.9-0.9,7.8-2,11.6-3.3c6.4-2,11.8-6.3,18.3-7.9c0.1-1.1,0.3-2.3,0.4-3.4
		C889.8,254.3,883,254.1,877.3,257.2 M1021.6,340.6c-2.9,2.7-7.1,1.6-10.7,1.7c-0.1-1.4-0.2-2.9-0.3-4.3c-3.5,2.4-7.2,4.2-11.1,5.7
		c-3.5,1.3-6.6,3.9-10.5,4c-8.4,0.3-16.7,0-25-1.3c-14.5-0.6-29.6,2.1-42.1,9.6c-2.2-0.7-4.5-1.3-6.7-2c0.1,1.6,0.3,3.2,0.5,4.8
		c-1.8,1-3.7,2.1-5.6,3c-2-3.1-4.3-6.1-7-8.7c-0.5,0.2-1.4,0.8-1.8,1c2,3.7,3.9,7.7,3.5,12.1c-1.8-0.7-3.5-1.7-4.5-3.4
		c-2.8-4.5-7.2-7.6-11.5-10.5c2.8,5.9,9.2,10.9,7.3,18.1c-5.1-2.5-8.7-7.2-14-9.4c1,6.1,6.9,9.6,8.2,15.5c-4.5-1.5-6.8-6.3-11.4-7.6
		c1.5,3.2,3.5,6.2,4.6,9.6c-3.4-0.9-6.4-2.6-9.3-4.5c0,3.5,0.1,7,0.2,10.5c-3.5,0.1-7-0.6-10.4-1.3c0.9,2.2,1.7,4.6,3.3,6.4
		c2.1,0.6,4.4,0.1,6.6,0.1c5.7,4,12.8,8.1,19.9,6.4c3.5,2.7,7.9,3.1,12.1,4c2.4,3.9,4.2,8.2,7.1,11.9c-4.9,0-7.2-4.5-10.2-7.6
		c-0.2,0.4-0.7,1.2-0.9,1.6c1,3.5,3.1,6.6,3.1,10.3c-3.9-1.2-6-4.9-8.5-7.8c-1.2,0-2.4,0-3.6,0c2.2,4.3,5,8.2,7.2,12.5
		c2.1,4.3,6.4,6.9,9.3,10.5c1.7,2.3,1.7,5.4,3.3,7.8c2,1.9,5.1,2,7.7,2.6c0.1,2.3,0.2,4.6,0.3,6.9c-4.4,2.3-9,4.4-13.4,6.7
		c-1.4,0.8-3,1.6-3.7,3.1c-0.3,1.6,0.2,3.1,0.4,4.7c4.9-2.1,8.1-6.6,13-8.6c1.9,0.6,3.5,1.8,5.1,2.8c1.9-1.6,3.6-3.6,6-4.7
		c5.2-0.1,10.4,0.9,15.6,1.8c11.6,2.3,23.4,2.3,35.1,2.2c0-0.3,0-0.9,0-1.2c-1.6-0.1-3.3-0.2-4.9-0.3l-0.4-3.2
		c0.7-0.4,2-1.1,2.7-1.4c6.6,3.8,14.2,6.4,21.8,5.8c4.2-1.2,8.2-3.2,12-5.2c6.1-3.8,7.5-11.4,8.9-17.9c8.3,1.2,14,8.6,17.1,15.8
		c-4.8,1.7-10.6,0.9-14.6,4.4c-1.9,1.7-4.3,3.5-3.8,6.4c6.7-1.7,13.1-4.5,19.8-6.2c3.2-1,6.7-1.6,9.2-3.9c1.3-1,2.5-2.6,4.3-2.4
		c7-0.3,14,0.1,21-0.1c-0.5-1.1-1.1-2.2-1.6-3.3c1.8-0.5,3.6-1,5.4-1.4c-0.1-0.5-0.1-1.3-0.2-1.8c-4.6-0.8-3.3-6.4-6.7-8.6
		c-4-3.9-9.8-4.5-14.1-7.8c-3.3-2.3-6.5-4.8-9.8-7.1c0.8,5.3,2.1,11.8,7.3,14.5c5.2,2.8,10.7,5,15.9,7.8c-4.6-0.9-9.3-1.2-13.9-2.1
		c-3.7-0.7-7.5-3.5-11.2-1.1c-5.2-3.1-10.8-5.5-16.3-7.9c-4.6-1.9-8.7-5.3-13.8-5.9c-4.8-0.6-9.1-2.8-13.5-4.4
		c-12.1-3.3-24.9-3.1-37.2-5.6c5.5-4.5,11.4-8.5,16.3-13.8c3.1-3.2,6.7-6,9.7-9.3c2-2.2,4.5-4.4,7.7-4.1c5.8,0.4,11.6,1.4,16.8,3.9
		c6.7,3.2,13.8,5.8,19.8,10.4c7.7,5.7,17.6,8.4,23.9,16c2.5,3,5.7,5.2,8.9,7.3c2.6,1.5,2.3,4.9,3.6,7.3c4.5,3.4,10.2,4.8,15.7,4.7
		c3.4,1.6,6.1,4.5,9.6,6c10.6,5.2,23,9,34.9,5.8c-0.9-1-1.7-2.4-3.2-2.1c-6.4-0.3-12.9-0.8-19.2-2.4c-2.1-0.5-3.6-2.1-5-3.7
		c6.5-2,13.3-2.8,20-2.9c3.9,0.2,3.5-4.5,4.2-7c-4.1,0.1-8.3,0.2-12.2-1c1.5-1.3,2.9-2.6,4.3-3.9c-3.1,0.2-6.2,0.6-9.3,1.1
		c-0.1-1-0.2-2.9-0.2-3.9c-3.4,0.6-6.8,1.2-10.3,1.1c1.2-1.5,2.5-3,3.8-4.5c-3.1,0.3-6.1,0.8-9.1,1.2c0.6-1.8,1.2-3.7,1.7-5.5
		c-2,0.8-4.1,1.6-6.2,2.3c-1.7,0.6-4.8,0.3-3.9-2.3c4.6-2.3,9.3-5,14.2-6.2c6.3,2.7,15.1,6.3,20.6,0.3c-4.9-1.6-10.1-2.4-15.1-3.5
		c0-0.5-0.1-1.6-0.2-2.1c4.2-0.4,8.5-0.6,12.7-1c2.7-0.1,4.4-2.4,6.2-4.1c-7.2-0.2-14.1,2.1-21.3,2.4c-6.2,0.2-12.5,1.4-18.5-0.2
		c1.6-1.3,3.2-2.6,4.9-3.9c-2.8-0.5-6.7,0.8-8.6-1.6c1.4-2.8,4.3-4.2,6.5-6.3c-6.8-2.8-13.9,1.2-20.9,0.3c0.1-0.4,0.2-1.3,0.3-1.7
		c3.4-3,9.4-2.9,10.7-8c-6.6-0.1-12.9,2.5-19.4,1.8c2.4-5.5,9.8-5.5,12.5-10.9c-6.3,1.1-12.2,3.7-18.7,3.9c0.3-7.1,10.8-6.8,10.7-14
		c-6.2-0.1-11.4,4-17.4,4.8c1.7-4.9,7.3-7,9.3-11.9c-6.1,0.1-11.6,4.3-17.8,3.4c3.1-4.3,8.3-7.3,9.1-12.9
		c-7.6,0.3-13.6,5.4-20.7,7.5c0.2-1.7,0.5-3.4,1.8-4.6c3.2-3.3,5.7-7.1,7.5-11.3C1028.9,335.1,1025.1,337.6,1021.6,340.6
		 M888.9,414.7c1.1,7.8,6.2,14.4,12.1,19.3c1.1,1.1,2.7,0.5,3.9-0.2c-1.6-3.7-4.8-6.4-6.8-9.9C895.6,420.4,893.8,415.3,888.9,414.7
		 M885.1,425.3c1.7,7.2,7.2,14.5,14.9,15.7c-0.3-1.8-0.4-3.8-1.8-5.2c-3.3-3.9-7.4-7-9.9-11.5C887.2,424.7,886.1,425,885.1,425.3
		 M1049.9,449.1c0,1.3-0.1,2.5-0.1,3.8c2.7,0,5.8-1.5,8.3,0.1c-3.3,4.7-9.8,4-14.8,5.5c-6.1,1.9-13,1.5-18.4,5.3
		c-3.1,2.4-7.2,1.2-10.7,1.3l0.2,2.6c5.9,1.8,12.4,1.2,18.1,3.7c5.1,2.1,10.5,3.1,15.9,3.5c0.5-2.1,0.2-5,2.4-6.1
		c3.2-1.8,6.6-3.4,8.2-6.9c-9.5,0.9-18,7.8-27.8,5.9l-0.5-1.8c3.9-1.5,8.1-1.3,12.1-2.2c3.9-0.9,7.8-2,11.5-3.6c4.6-2,8-6,12.9-7.4
		c3.4,0,6.8,0.9,10.3,0.8c0.1-0.6,0.2-1.8,0.3-2.4c-2.1-0.5-4.2-1.1-6.3-1.5C1064.3,448,1057.1,449.6,1049.9,449.1 M933.9,460.5
		c1.4,4.7,4.7,8.6,6.4,13.2c3,7.4,5.6,15.1,10.5,21.4c3.7,5.9,9.7,9.6,14.8,14.2c5,3.8,10.5,7.1,16.2,9.7c6.2,1.9,12.5,4.6,19.1,4
		c7-0.4,14.4,0,21-3.1c4.1-2,9.6-3.7,10.4-8.9c-3.6,0.4-7,1.5-10.3,2.8c0.8-2.6,1.4-5.2,1.9-7.9c-3.7,1.8-6.7,4.9-10.4,6.7
		c-1.3,0.8-2.7,0.2-4,0c1.5-1.9,3-3.9,4.5-5.8c-5.2,0.6-9.9,2.9-14.8,4.4c1.5-2.2,2.9-4.5,4-6.9c-5.6,0.6-10.8,3.2-16.5,3.7
		c1.3-3.3,4.4-5.1,6.9-7.3c-5.7-2.2-11.1,1.5-16.6,2.5c-0.3-0.3-0.8-0.8-1.1-1.1c2.1-2,4.5-3.6,6.8-5.4c-5-2.1-10,0.8-14.9,1.5
		c0.1-3,4-4.4,5.8-6.5c-4.9-1.7-12.1,0.5-14.9-5.1c1.5-0.9,3-1.8,4.5-2.7c-3-1.1-6.1-2.1-9.2-3.1c0.6-1.2,1.2-2.5,1.8-3.7
		c-1.7-1.2-3.4-2.4-5-3.5c7.4,1.8,14.7,4.2,22.1,5.8c6.6,1.3,12.3,5.2,19.1,5.9c5.5,0.6,12.2,1.1,16.4-3.3c-3.3,0-6.6,0.5-10,0.9
		c2.4-5.6,10.4-3.5,13.8-8.3c-6-0.2-11.8,1.6-17.5,3.1c-5.4,1.4-11.9,1.7-16.8-1.4c3.5-1.3,7.2,0.6,10.8-0.1c5.5-1,10.8-3,16.1-4.6
		c-2.8-0.6-6.3,0-8.5-2.3c1.8-1.4,4.1-1.5,6.3-1.8c-0.1-0.4-0.3-1.3-0.5-1.8c-4.2-0.4-8.3,0.9-12.4,1.7c-6,0.7-12,0-18,0
		c-7.4,0.1-14.5-2.2-21.3-5C945.4,460,939.5,460.2,933.9,460.5 M1054.8,470.8c5.7-0.7,11.6-3,15.3-7.6
		C1064.7,464.7,1058.4,466.1,1054.8,470.8 M1115.4,536.3c-2.3,9,0.3,18.4-1.8,27.4c0,2.1-3.7,2.6-3.6,0.3c-0.9-7-1.5-14.1-1.7-21.2
		c-0.7,0.6-1.3,1.2-1.9,1.8c-1.4,8.8,2,18-1.5,26.5c-2.5-5.8-2.6-12.3-5.3-18.1c-1.2,3.6-2.3,7.2-2.5,11c-0.5,4.4,0.3,9-2.1,13
		c-4.6-4.1-3.3-10.8-5.3-16.1c-2.2,6.7-1,13.7-1.6,20.5l-1.1,0.1c-2.5-2.9-1.9-7.6-4.4-10.7c-0.3,4.1-0.1,8.2-0.4,12.2
		c-0.1,1.7-0.8,4.6-3,3.1c-1.7-2.6-1.5-6.1-3.8-8.4c0,9.2,1.9,18.5,0.6,27.7c-2.9-2.2-3.1-6-4.3-9.1c-1.3-4.1-3.7-7.8-5.4-11.7
		c-2.3-5.1-4.1-10.6-8.2-14.5c0.6,7.1,4.3,13.3,6.2,20c-2,0.6-4.3,2.7-6.3,1c-2.7-2.2-2.6-6.4-5.7-8.3c-0.2,7.5,5.1,13.4,6.7,20.4
		c-5.2-5.5-10.1-11.3-15.8-16.3c-3.7-3-6.3-7.6-11.1-8.8c1.6,2.7,3.8,4.8,6,7c2.8,2.7,3.9,6.6,6.3,9.7c3.2,3.9,7,7.1,11.1,9.9
		c3.6,2.7,7.6,5.4,9.3,9.7c2.2,4.6,2.7,9.8,4.6,14.5c3.1,6.2,6.9,12.2,9.1,18.9c2.9,8.4,8.4,15.5,12.6,23.3c1.2,2.5,3.5,4.1,5.9,5.2
		c-2-11.8-5.8-24-14.6-32.6c-3.4-3.5-5.7-7.8-7.9-12c-2.1-4-1.2-8.7-0.8-13c3.1,4,0.7,10.1,4.7,13.6c0.5-3.3,0.7-6.6,1.8-9.7
		l1.4,0.9c3.6,7.1,6.5,14.7,8.8,22.3c1.6,5.3,5,9.8,7.1,14.9c2,4.2,3.5,9.4,8.1,11.6c-2-8.3-5.1-16.4-7.4-24.7
		c-2.9-9.6-8.6-17.8-13.4-26.5c-2-3.2-1.6-7-1.3-10.6c1-0.4,2-0.8,3-1.1c0.2-2.7,0.6-5.4,0.9-8.1c1.7,0.1,3.5,0.2,5.2,0.3
		c0.6-3.3,1.1-6.6,1.8-9.9c3.7,3.7,4.9,9,7.3,13.5c3.7,7.4,5.2,15.6,7.6,23.5c2.7,6.8,5.9,13.5,10.3,19.3
		c-0.6-7.7-1.7-15.4-5.4-22.3c-3-5.4-4.1-11.6-7-17.1c-2.5-4.8-4.6-9.7-6-14.8c0.7-3.5,2.2-6.9,3.7-10.1c1.1,2.2,1.1,5.1,3.2,6.6
		c0.4-0.2,1.1-0.6,1.4-0.8c3.7-6.7,1.5-14.7,2.5-21.9c0.9,1,2.2,1.9,2.4,3.3c1.4,5.1,1,10.4,1.9,15.5c3.2-3.5,2.8-8.6,3.5-13
		c0.9-5.5-0.6-11-0.7-16.5c-0.8-6.8,0.3-13.7-1.8-20.3C1116.9,536.6,1115.9,536.4,1115.4,536.3 M893.9,574.9
		c-1.3,1.1-1.1,4.1,1.1,3.8c4.1-0.9,6.3-5.1,8.1-8.5C899.6,570.7,896,571.8,893.9,574.9 M1089.8,608.7c-0.3,4.4,1.2,8.5,3.3,12.2
		c4.5,8.1,7.6,16.8,11.9,25c2.5,5,3.2,10.8,6.8,15.3c0.2-6.7-1.8-13.2-3.4-19.6c-2.5-9.3-7.6-17.5-12.2-25.8
		C1094.6,613,1092.5,610.4,1089.8,608.7 M1126.8,662.5c-0.9,5.2,1.9,10.1,0.9,15.3c-1.7,9.1,0.8,18.3,3.1,27.1
		c1.5,7.8,4.8,15,6.8,22.7c1.5,6,4.8,11.4,5.3,17.7c-1.5,0.4-2.9,0.8-4.3,1.4c-0.2,3.2,0.4,6.5,0.6,9.7c-1.8-1.1-3.6-2.4-3.8-4.6
		c-1.2-5.9-2.9-11.7-3.7-17.6c-0.7-6.2-3.4-11.9-3.8-18.1c-0.1-2.2,2.1-4.1,1.3-6.3c-2.4-7.8-5.4-15.7-10.8-21.9
		c-0.1,6.2,1.2,12.3,2.6,18.3c1.4,5.6,1.4,11.4,3,17c1.9,6.9,4.8,13.5,6.6,20.5c1.9,6.3,2,13.1,4.9,19c1.3,2.7,2.1,5.7,2.5,8.8
		c-4.7-2.5-10.2-5.3-11.4-11c-1.9-10-1-20.5-4.8-30.1c-2.3-5.8-4.5-11.6-6.3-17.6c-0.6-2.2-1.5-4.2-3-5.9
		c-0.1,6.2,1.6,12.3,2.2,18.5c0.9,9.2,4.2,18,6.1,27c1.2,6,3.6,11.8,3.4,18c-1.8-0.7-4.7-0.9-4.9-3.4c-2.3-10.1-5-20.1-8.2-29.9
		c-1.5-7.4-3.8-14.5-6.4-21.6c-1.5-3.5-3.1-7.3-6.5-9.5c0.3,3.4,1.2,6.7,2,10c2.1,8.4,2.1,17.2,4.7,25.5c3.1,7.4,6.2,14.8,8.4,22.5
		c1.3,4.5,1.9,9.3,4.3,13.4c2.4,0.9,5.8,0.5,6.9,3.3c2.8,4.8,5.5,9.7,9.4,13.7c3.2-0.3,6.4,0,9.6,0.2c-0.9-3.1-2.4-6.1-3.1-9.2
		c0.6-2.8,1.9-5.3,2.8-8c1.9,0.9,3.8,1.9,5.8,2.8c-1.2-5.7-3.6-11-4.8-16.6c1.2-2.2,4.1-0.2,6-0.2c0.1-3.2,0.2-6.5,0.2-9.7
		c1.7-0.1,3.3-0.1,5-0.2c-0.1-5,0-10.1-1.8-14.8c-2.3-1.9-4.8,0.5-6.9,1.4c-1.2-3.1-1.7-6.5-2-9.8c-0.5-4.3-2.3-8.2-3.5-12.3
		c-2.3-8.2-6.8-15.6-8.9-23.8c2.6,2.4,4.2,5.7,6.5,8.4c4.5,4.9,4.4,12.1,8.7,17.1c-3.1-12.2-5.2-24.8-9.2-36.7
		c-1.4-3.7-4-6.7-5.5-10.3C1131.1,668.9,1130.4,664.5,1126.8,662.5 M1114,806c1.4,5.3,3.8,10.4,7.2,14.7c2.8,3.5,5.1,7.5,9.1,9.9
		c3.8,2.3,7.7,4.6,11.8,6.3c-3.8-6.4-10.5-10.2-15.5-15.6C1121.5,817,1119.1,810.4,1114,806 M1111,814.9c0.6,4.6,1,9.5,3.6,13.5
		c6.2,7.4,11.5,15.9,20.2,20.6c-0.8-6.6-5.3-11.8-8.8-17.1C1121.4,826,1116.6,820.1,1111,814.9L1111,814.9z"/>
	<path class="st0" d="M1072.8,0h33.6c0,3.1,0.5,6.4-0.9,9.4c-2.3,5-5.6,10.3-11.1,12.2c-3.5,1.6-8.1,0.6-10.5-2.4
		c-1.8-4.3-2-9.1-3.2-13.5c-0.6-0.1-1.7-0.4-2.2-0.5c0,2.8,0.1,5.7,0,8.5c-0.7-0.3-2.2-0.9-2.9-1.2C1074.7,8.2,1073.9,4.1,1072.8,0
		L1072.8,0z"/>
	<path class="st0" d="M1127.4,0h8.8c8.6,4.1,17.8,6.9,25.8,12.1v35.2c-6.3-3.4-12-8.5-19.3-9.9c-6.4-1.2-12.1-4.7-18.4-6
		c-4.2-1-8.5-1.4-12.8-1.5c3.5,5.1,10.1,5.1,15.5,7c5.4,1.4,9.7,5.3,15.1,6.8c3.5,1.1,7.2,1.7,10.3,3.9c3.2,2.4,6.3,4.9,9.6,7.2v60
		c-4.6-5-10.3-8.8-15-13.7c2.8,1.1,5.6,2,8.6,2.8c-2.6-7.8-12-9.4-16-16.2c3.5-0.4,7-0.8,10.5-1.6c-5.2-5-12.7-5.4-19.2-7.9
		c1.1-1.3,2.3-2.6,3.4-3.8c-3.6-2.8-8.2-3.4-12.4-4.7c-2.6-0.8-1.6-4.4-0.2-5.9c2.6-0.8,5.3-0.3,7.9-0.5c-0.7-1.3-0.9-3.1-2.4-3.6
		c-3.6-1.6-7.4-2.7-10.8-4.5c0.3-0.7,0.9-2,1.2-2.7c1.6-0.5,3.3-0.9,4.9-1.6c1.2-2-1.4-3.7-2.7-4.8c-3.7-1.8-8.1-1-12-2
		c-1.4-2.9-2.5-6-4.6-8.5c2.1-3.2,3.7-7.9,7.9-8.7c4.3-0.7,8.7-1.1,13-1.5c5.7-0.4,10.8,2.4,16.1,4.2c6.1,2.4,12.5,4.3,19.1,4.4
		c-0.8-1.9-1.1-4.2-3-5.3c-7.3-5.4-16.4-6.3-24.7-9.5c-4.4-1.6-8.8-3.2-13.2-4.7c-0.1-0.6-0.2-1.8-0.3-2.4c4.3-0.6,8.6-0.6,12.8-0.1
		c4.2,0.5,8.2-1.1,12-2.7C1138.5,5.3,1132.8,2.7,1127.4,0 M1145.8,11.2c1.1,2.6,3.7,3.4,6.3,3.7C1151.1,12.1,1148.7,11,1145.8,11.2
		 M1126,43.1c2.4,2.6,5.3,4.8,8.6,6c0-1.3,0-2.5,0.1-3.8C1131.9,44.1,1129,43.3,1126,43.1L1126,43.1z"/>
	<path class="st1" d="M1136.2,0h16.2c3.2,1.9,6.5,3.8,9.7,5.7v6.4C1154,6.9,1144.8,4.1,1136.2,0L1136.2,0z"/>
	<path class="st0" d="M1152.3,0h9.7v5.7C1158.8,3.8,1155.6,1.9,1152.3,0z"/>
	<path class="st1" d="M1145.8,11.2c2.8-0.2,5.3,0.9,6.3,3.7C1149.6,14.5,1146.9,13.8,1145.8,11.2z"/>
	<path class="st1" d="M675.6,28.5c3.5-4.9,4.7-11.6,10.3-14.8c-0.6,4.9-3.4,9-6.1,13c-4.9,7.4-6.4,16.2-8.6,24.5
		c-3.5,9.4-4.2,19.7-9.3,28.6c-0.4-0.5-1.2-1.6-1.6-2.1c0-4.4,1.9-8.6,2.8-12.9c1.2-5.8,2.6-11.5,5.1-16.9
		C670.9,41.6,671.5,34.3,675.6,28.5z"/>
	<path class="st0" d="M1099.9,31.2c-0.4-6.6,3.3-13,9.2-15.9c2.7-0.1,4.6,2.3,6.5,3.8c-2.9,1.4-6,2.4-8.7,4
		C1104.2,25.4,1102.4,28.6,1099.9,31.2z"/>
	<path class="st1" d="M876.8,42.8c6.9-6.5,14.5-12.3,22.9-16.7c-0.1,0.5-0.3,1.6-0.4,2.2c-6.7,6.4-12.9,13.2-18.7,20.4
		c-2.4,2.6-5.2,4.8-7.9,7.1c-3.2,2.7-6.1,5.8-10,7.4c0.1-3.8,3.3-6.2,5.4-9C871.3,50.6,873,45.8,876.8,42.8z"/>
	<path class="st1" d="M1111.6,29.9c4.3,0.1,8.6,0.5,12.8,1.5c6.4,1.3,12,4.8,18.4,6c7.3,1.3,12.9,6.5,19.3,9.9v7.5
		c-3.2-2.3-6.4-4.9-9.6-7.2c-3-2.2-6.8-2.8-10.3-3.9c-5.4-1.5-9.7-5.5-15.1-6.8C1121.7,35,1115.1,35,1111.6,29.9z"/>
	<path class="st1" d="M721.8,49.9c0.8-5.3,5.8-9.5,11.2-8.8c0,3.6-1.2,7.7-4.9,9.1C726.3,51.1,722.3,53.2,721.8,49.9L721.8,49.9z"/>
	<path class="st1" d="M1126,43.1c3,0.2,5.9,1,8.7,2.2c0,1.3,0,2.5,0,3.8C1131.2,47.9,1128.4,45.7,1126,43.1L1126,43.1z"/>
	<path class="st1" d="M713.3,64.3c4.8-4.2,10.2-8.3,16.7-9.5c1.8,0.6,1.5,2.6,1.3,4c-1.5,2-3.8,3.2-5.8,4.5
		c-4.6,2.6-8.6,6.1-12.8,9.3c-3,2.3-5.5,5.2-7.5,8.4c5.6-2,9.9-6.6,15.7-8.4c6.9-2.4,12.2-8.5,19.7-9.5c0.2,2.6,0.4,5.1,0.6,7.7
		c-8.7,3.2-16.4,8.3-24.4,13c-6,4.9-12.3,9.3-19.1,13c-0.6-3.5,0.5-6.9,2.6-9.6c2.9-3.6,2.9-8.6,5.5-12.4
		C708.1,71.2,710.2,67.3,713.3,64.3z"/>
	<path class="st1" d="M850.7,92.6c6.9-5,14.6-9.4,23.2-10.5c-5,3.5-10.7,5.7-15.7,9.2c-6.5,4.6-13.6,8.3-21.1,10.9
		c-2.7-3.1-6.5-0.9-9.5,0.5c-6.9,3.6-14.4,5.7-21.7,8.3c0.7-1.8,0.8-4.3,2.8-5.1c3.7-1.5,7.6-2.1,11.2-3.8
		c6.3-2.8,12.8-5.3,19.7-6.6C843.4,94.6,847.3,94.3,850.7,92.6z"/>
	<path class="st0" d="M894.3,100.3c4.5-4.1,9.7-7.7,15.7-9.2c-2.7,3.8-5.4,8.3-10.2,9.7c-2.9,0.8-5.2,2.9-6.4,5.7
		c4-0.2,7.9-0.3,11.9-0.1c-2.5,4.9-9,3.9-12.6,7.3c-3.7,3.3-6.4,7.7-9.3,11.7c-3.4,4.5-4.7,10.3-8.5,14.5c-3.9,4.6-6.7,10-10,15
		c-3.8,5-8.8,9.4-14.9,11.1c-7.7,2.5-15,5.9-21.9,10c-7.6,3.6-14.9,7.7-22.3,11.7c-4,2.2-7.4,5.6-11.6,7.4c1.2-3.4,3.8-6.1,6.2-8.8
		c3.7-3.9,5.2-9.2,8.7-13.3c4.2-4.8,8.6-9.6,14.1-12.9c5.8-4,12.4-6.7,17.9-11.1c5.4-4.3,11.9-7.2,16.8-12.2
		c5.2-4.6,9.9-9.8,15.3-14.2c-1.9-0.2-3.9-0.3-5.8-0.5c2.4-5.9,8.4-8.8,13.1-12.7C884.5,105.6,890.2,104.2,894.3,100.3L894.3,100.3z
		"/>
	<path class="st0" d="M723.1,109.1c6.2-4.1,10.7-11.4,18.7-12.1c-3.8,3.5-7.5,7.1-11.8,10.1c-5.1,3.5-8.6,8.7-13.5,12.5
		c-4.6,3.6-10,6.7-12.8,12.2c3.1,0.3,7-0.1,8.4,3.3c5.6-4.9,10.8-10.4,16.3-15.6c1.2-1.3,2.8-1.8,4.4-1.9
		c-2.9,5.1-7.7,8.6-11.3,13.1c-4.6,6-11.6,9.5-16.2,15.5c0,1.8,0.2,3.8-1.1,5.2c-2.9,3.7-5.5,7.7-7.8,11.9c1.1,0.6,2.3,1.1,3.4,1.7
		c-2.5,4.7-6,8.7-10,12.2c-2.8,2.3-4.1,5.7-5,9.1c3.3-0.8,6.4-2.6,10-2.6c-0.7,2.3-1.2,4.8-2.4,6.9c-3.9,4.9-9.9,8.3-12,14.4
		c5.1-0.5,10.1-3.2,15.4-2.1c2-0.1,1.6,2.7,0.6,3.6c-3.3,4-6.9,8.1-11.8,10.4c-3,1.3-6.7,4.2-4.3,7.9c3.8-3.5,7.9-7.7,13.5-6.6
		c-0.8,2.9-2,5.7-4,8.1c-2.4,3.3-6.1,5.7-7.3,9.8c4-1.7,7.3-4.6,11.2-6.4c3.1,2.5,0.7,6.7-1,9.4c-2.7,5-9.3,7.1-10.3,13.1
		c2.2-1.5,4.2-3.4,6.6-4.8c2.3-1.5,5.2-1,7.8-1.1c-0.1,4.2-3.6,6.8-6.1,9.8c-2.1,2.4-3.2,5.4-4.2,8.5c3.7-1,7.1-2.7,10.6-4.1
		c3.4-1.4,7.1-1,10.6-1c7.1,0.1,14.3-2,21.4-0.4c4.3,1.3,8.7,2.7,12.3,5.4c3.6,2.8,8.4,2,12.4,3.8c7.3,3.3,14.5,6.9,22.4,8.6
		c6.5,1.5,12.9,3.4,19.2,5.6c-0.2,1.2-0.3,2.4-0.4,3.6c1.3,1.3,2.5,2.6,3.7,4c-8-0.7-15.6-3.1-23.1-5.7c-9.6-2.8-17.8-8.7-27.2-11.9
		c-4.3-1.4-7.9-5-12.6-4.9c-12.8-0.5-26.1,0.5-38,5.8c-2.8,1.3-5.1,3.2-7.3,5.2c2.6-0.3,5.3-0.5,8,0.1c-1.7,1.8-3.3,3.5-4.8,5.5
		c7.2-2.2,13.5-6.9,21-7.8c4.7-0.6,9.4-0.7,14.1-0.4c7.6,0.6,14.4,4.7,22,5.6c6.7,0.3,12.6,3.9,18.9,6c8.1,3.7,16.7,5.9,25.2,8.5
		c8.1,2.3,14,8.7,20.8,13.3c-7.8,2.2-15.3-1.7-22.8-3.3c-5.8-1.2-11.4-3.3-16.6-6.2c-3.8-2.1-7.9-3.8-11-7c-2.8-2.9-7.3-3-10.1-5.9
		c-2.5-2.5-5.8-4.1-9.4-3.9c-9.1,0-18.5-0.7-27.1,2.6c-6.5,2.8-14.5,1.8-20.2,6.5c-5.2,3.4-9.1,8.4-12.8,13.3
		c-2.2,3.1-7.1,2.7-8.4,6.6c-3,6.7-6.6,13.1-11.1,18.9c-0.8,0.9-2.1,1.1-3.1,1.6c-0.7-4.8,2-8.7,4.2-12.6c3.6-8.7,3.2-18.3,3.1-27.6
		c0-4.4-1.6-8.7-1.3-13.1c0.2-4.6,0.3-9.2,0.7-13.8c1.2-17-1.1-34-0.4-51c1.6-9.6,1.9-19.3,2.6-28.9c0.3-6.7,4.6-12.2,6-18.7
		c1.2-6,6-10.3,8-16c5.4-9.4,11-18.7,17.4-27.5c2.3-3.9,4.7-8,8.4-10.7C715.3,109.5,719.9,111.5,723.1,109.1L723.1,109.1z"/>
	<path class="st1" d="M842.4,115.3c5.2-2.3,7.7-8.7,13.8-9.3c-1.9,4.5-6,7.4-9.3,10.7c-2.7,2.8-6.7,3.1-10.2,3.8
		C838,118.3,840,116.5,842.4,115.3z"/>
	<path class="st0" d="M1153.1,114.8c3.1,1.5,6,3.1,8.9,5v4.6C1159,121.2,1155.8,118.3,1153.1,114.8z"/>
	<path class="st1" d="M810,130.1c3-3.4,5.8-8.7,10.9-8.6c2.2-0.1,4.4,0.1,6.6,0.3C822.9,126.5,816.5,129.1,810,130.1L810,130.1z"/>
	<path class="st0" d="M1142.5,158.4c1.7,1.2,3.6,2.4,4.3,4.5c2.5,6.6,6,12.8,8.8,19.2c1.5,3.6,4,6.6,6.3,9.6v6.2
		c-2.7-2.1-5-4.7-5.8-8.1C1153.2,178.7,1143.8,170.2,1142.5,158.4L1142.5,158.4z"/>
	<path class="st0" d="M1140.3,176.8c2.6,2.3,4.1,5.4,5.3,8.6c1.9,5.1,5.8,9.3,7.3,14.6c1.2,4.1,2.5,8.3,4.7,12.1
		c-0.3,0.2-1,0.5-1.4,0.7c-2.6-6.2-7-11.5-8.6-18.1C1146.5,188.1,1140.7,183.6,1140.3,176.8z"/>
	<path class="st1" d="M639.2,200.3c0.6-1.9,1.6-3.5,2.9-5c0.6,4.9,0,9.9-1,14.8c-0.7,5.3-5.2,8.8-8.8,12.3
		c-2.8,2.7-6.6,3.9-10.3,4.5c3-5.1,8.1-8.6,10.9-13.9C635.1,208.8,637.7,204.8,639.2,200.3L639.2,200.3z"/>
	<path class="st0" d="M1136.2,204.7c7.9,6.4,10.1,16.6,14.9,25.1c3.7,7,5.8,15,10.9,21.2v7.3c-2.7-6-6.5-11.4-8.8-17.6
		c-2-5.4-5.7-9.8-7.9-15C1142.4,218.7,1137,212.6,1136.2,204.7z"/>
	<path class="st0" d="M1158.2,214.6c1.3,1.5,2.6,3,3.8,4.6v9.3C1160.2,224.1,1158.4,219.5,1158.2,214.6z"/>
	<path class="st1" d="M634.4,227.4c2.2-2,5.4-1.8,8.2-1.8c0.3,6.7-7.1,8.5-11.5,11.6c-7,4.9-14.1,9.7-20.2,15.7
		c-5.3,5-11.2,9.4-15.9,15.1c-2.6,2.9-4.5,6.9-8.6,8c-2.4,6.2-2.3,13-4.7,19.3c-0.6,7.9-0.7,15.9,0.6,23.7l-2.4,1.2
		c-0.8-7-2.5-14-2-21c0.5-7.8,0.9-15.6,2.8-23.2c1.2-3.9,2.6-7.7,3.1-11.8c-2.2,2.1-4.3,4.4-5.5,7.2c-1.3,2.8-1.9,6.1-4.4,8.1
		c-1.2-0.8-1.7-1.9-1.3-3.2c0.9-5.4,5.4-8.9,8-13.4c3.5-6,9.2-10.1,14-15c1.5-1.6,3.4-2.8,5.4-3.7c-1.8,5.3-7.2,8.9-7,15
		c4-3.4,7.6-7.3,12.5-9.5c7-3.3,13-8.4,19.4-12.6C628.8,234.5,631,230.3,634.4,227.4L634.4,227.4z"/>
	<path class="st0" d="M786.7,227c6.4-0.5,12.2,2.7,17.6,5.7c3.3,1.9,7.1,3.2,10,5.9C804.4,237.3,793.1,235.3,786.7,227L786.7,227z"
		/>
	<path class="st1" d="M633.6,247.6c1.7-2.7,3.5-5.5,6.5-6.9c-1.1,5.8-5.3,10.2-8.3,15.2c-4,6.8-9.6,12.4-14.7,18.3
		c-3.2,3.8-7.4,6.8-9.9,11.1c-2.3,3.8-3.3,8.2-3.5,12.6c0.9,0.7,1.8,1.4,2.8,2.1c-1.7,6.9-1.3,14-1.4,21.1c-0.2,5.6,2.5,11.2,1,16.7
		c-4.8-6-4.3-14.2-5.8-21.3c-2.1-10.2,0.8-20.8-2.1-30.8c-0.3-1.2-0.5-2.4-0.7-3.6c1.6-2.8,3.9-5,6.1-7.4c4-4.4,10.3-5.4,14.7-9.3
		C624.2,260.2,629.4,254.2,633.6,247.6L633.6,247.6z"/>
	<path class="st0" d="M746.3,241.1c13.1,2.4,25.8,6.5,38,11.6c7.4,2.4,12.9,8.5,20.4,10.5c6.9,1.9,13.3,5.2,19.8,8.2
		c3.5,1.8,7.9,1.9,10.9,4.6c0.5,2.5-2.3,2.6-4,2.5c-5.6-0.6-11-2.2-16.3-3.8c-8.2-2.5-16.8-4.8-23.7-10.2c-4.7-3.9-11-5.3-15.5-9.5
		c-9-5.7-19.6-8-29.6-11.6C746.4,242.8,746.3,241.7,746.3,241.1L746.3,241.1z"/>
	<path class="st0" d="M877.3,257.2c5.8-3.2,12.5-3,18.9-2.2c-0.2,1.2-0.3,2.3-0.4,3.4c-6.5,1.6-11.9,6-18.3,7.9
		c-3.8,1.3-7.7,2.4-11.6,3.3C867.3,263.9,871.7,259.4,877.3,257.2z"/>
	<path class="st0" d="M1150.3,260.6c4.2,2.5,6.5,6.7,8.6,10.9c1-1.2,2.1-2.4,3.1-3.6v30.7c-2.4-4.8-4.9-9.4-7.6-14
		C1150,277.4,1150.2,268.7,1150.3,260.6L1150.3,260.6z"/>
	<path class="st0" d="M1135.9,281.6c2.5,0.4,5.3,0.5,7.5,2.1c7.7,5.5,12.7,13.7,18.6,20.9v11.9c-4.5-6.6-9.9-12.5-14.7-18.8
		C1143.4,292.4,1136,289,1135.9,281.6L1135.9,281.6z"/>
	<path class="st1" d="M594.4,286c1.4-1.7,1.4,1.9,1.2,2.7c-2,8.8-3,17.9-1.8,26.9c0.3,2,0.8,4.1,0.8,6.2c-0.2,1.8-3,1.5-3.2-0.1
		c-2.5-6.9-1.6-14.4-1.8-21.6C589.7,295.1,590.4,289.4,594.4,286L594.4,286z"/>
	<path class="st1" d="M608.9,295c3.2-3.7,6.2-8.5,11.4-9.5c-0.8,2.6-1.9,5.2-2.9,7.7c-1.4,3.2-2.3,6.9-5.2,9.2
		c-0.3-2-0.6-3.9-0.8-5.9C610.5,296,609.7,295.5,608.9,295L608.9,295z"/>
	<path class="st0" d="M1143.3,301.7c7.2,4.6,11.8,12.1,18.7,17v18.7c-7.7-9.5-15.5-18.8-23.9-27.5c2.6,0.6,5.3,1.3,7.9,2
		C1145.2,308.5,1144.2,305.1,1143.3,301.7L1143.3,301.7z"/>
	<path class="st0" d="M684.2,315.2c4.5-4.9,8.4-11.7,15.7-12.4c-0.5,6.7-3.7,12.9-8.2,17.9c-3.4,3.8-8.3,5.7-12.2,8.8
		c-4.2,3.2-7.3,7.5-10.5,11.5c-1.3,1.8-2.9,3.6-3.2,5.9c2.1-0.6,4-1.6,5.9-2.6c-0.4,2.6-0.8,5.2-1,7.8c1.7-1.7,3.4-3.5,5.1-5.2
		l2.1,2.9c6.2-2.9,13-4,19.8-3.3c-1.3-1.8-2.5-3.7-3.7-5.6c5.8,1.4,11.8,2.6,16.8,6c3.7,2.2,6.9,5.1,10.3,7.7c2.3,2,5.5,1.3,8.2,1.2
		c-6.1-6.8-14.7-10.4-21.8-16c3.6-0.5,7.6-1.5,10.8,0.7c3.5,2.2,6.9,5.2,11.4,4.8c-0.8-2.1-1.6-4.1-2.4-6.2
		c6.3,1.5,9.8,7.8,16.1,9.2c-1.3-3.4-3-6.6-4.2-10.1c7.8,2.8,13.7,9.3,21.7,11.9c-1.2-2.8-2.6-5.5-4-8.1c5.4,3.1,10,7.2,15.1,10.8
		c2.9,2.6,6.9-1.7,9.8,1c5,3.6,10.6,6.7,14.3,11.8c2.7,3.7,6,6.9,9.3,10.1c0.6-4.6,2.1-9,3.8-13.3c1.8,1.8,3.8,3.2,6.1,4.2
		c-0.2-4.1-2.1-7.7-3-11.6c0.5-2.3,2.8-3.7,4.2-5.4c1.4,2.2,3,4.2,4.9,6c1.3-3.8,2.1-7.8,2.1-11.8c0.9,2.2,2,4.4,3.1,6.5
		c0.5-4.1-0.1-8.9,3.4-11.7c0.9,4.2,1.6,8.4,2.9,12.5c2.9-4.8,0.9-10.5,0.9-15.7c1.2,0,2.4,0,3.7,0c0.3-2.2,0.7-4.4,1-6.6
		c0.9,1,1.8,1.9,2.7,2.9c2.4-1.9,4.9-3.7,7.6-5.1c-1,5-3.4,9.5-5.2,14.2c-1.5,3.7-1.1,8.1-3.3,11.6c-3.1,5-5.9,10.2-8.9,15.2
		c-3.6,5.9-4.5,12.9-6.8,19.3c-2.5,6.9-3.1,14.5-1,21.6c15.5-6.1,34.3-8.5,49.2,0.6c-6.1,0.6-12.2-0.1-18.3,0.5
		c-7.2,0.6-14.2,2.7-21,4.9c-4.7,1.4-8.1,5.4-10.4,9.5c-1.3,3.1-0.6,6.6-1.1,9.9c-0.6,5.9-4.5,10.7-7.4,15.8
		c-6.9,11.8-13.1,24.1-16.7,37.4c-1.5,5.5-4.5,10.3-6.3,15.7c-1.6,4.4-2.7,9-4.6,13.4c-2.8,6.7-7.1,12.7-8.9,19.8
		c-1.4,6.1-3.6,11.9-5.5,17.8c1.5,1.8,2.4,4,1.7,6.4c-2.1,10.9-4.6,21.7-7.8,32.2c-0.9,3.2-1.6,6.4-1.6,9.7c0.1,3.1,2,5.8,3.4,8.5
		c2.5,4.4,4.4,9.5,8.6,12.5c6.1,4.6,13.9,5.5,21,8c9.9,3.4,20.6,1.5,30.3-1.6c6.6-1.6,12.3-5.6,18.9-7.4c-1.8,4.5-5.7,7.3-9.4,10.2
		c7.2,1.4,14-1.7,21.1-2.4c7.5-1.1,15.2-0.2,22.7,1c4.5,0.8,8.3,3.4,12.4,5.3c2,0.9,4.6,1.9,6.7,0.5c4.6-2.6,7-7.5,9.3-12
		c2.4-4.9,6.5-9.2,6.9-14.8c0.2-4.2-2.7-7.6-4.2-11.2c-2.2-4.7,0-10.2-2.2-14.9c-2.2-3.2-7-2.1-9.6-4.8c2.9-5,9.1-4.7,14.1-4.2
		c-0.8,1.8-1.6,3.5-2.3,5.3c4.4,0.8,9,1.4,12.9,3.9c-2,0.6-4,1.2-5.9,1.8c5.9,2.9,12.1,5.5,17.4,9.4c-0.3,1.9-0.6,3.8-0.8,5.7
		c2.9,1.6,5.7,3.2,8.5,4.9c-1.5,0.9-3.1,1.8-4.6,2.8c3.9,2.5,8,4.6,12.2,6.7c-1.3,1.1-2.7,2.2-3.9,3.4c3.8,5.1,11.2,3.5,15.5,7.9
		c-2.8,0.4-5.7,0.7-8.5,0.9c0.1,0.5,0.2,1.5,0.3,2c3.9,1.6,7.8,3.4,11.4,5.5c-0.7,1.7-1.4,3.5-2.2,5.2c2.2,1.7,4.6,3.3,7,4.9
		c-0.1,1.8-0.3,3.6-0.1,5.3c2.9,2.6,6.7,3.9,10.1,5.9c4.5,2.4,8.6,5.5,13.2,7.8c1.9,1,4,0.2,5.9-0.4c7.7-2.7,15.5-5.4,23.3-7.7
		c-1.9,4.4-4,9.2-8.3,11.7c-3.5,1.8-7.6,1.9-11.5,2.5c0,0.7-0.1,2-0.1,2.7c8.8,0.1,17-3.3,25-6.9c-0.5,3.2-1.9,6.2-4,8.7
		c2.2,0,4.4,0.1,6.6,0.2c-2,5.9-8.6,7.4-12.8,11.3c4.5,2.8,9.9,0.9,14.8,0.9c0,1.3,0,2.6,0,3.9c-4.4,1.4-9,2.9-13.6,2.1
		c-4.6-1.7-6.7-6.9-11-9c-7-3-15-2.5-22-5.4c-9.8-7-13.7-19.3-22.7-27.1c-3.6-3-8.4-4-11.9-7.2c-3.3-3-7.5-5-10.6-8.3
		c-6.6-7.2-11.2-16-15.6-24.6c-1,2.5-1.9,4.9-2.8,7.4c-1.5,0.4-3.1,0.6-4.4,1.3c-2.6,3.4-3,8-5.3,11.6c-4.9,6.5-12.2,11.2-20.5,11.8
		c0.5,4.5,0.5,9.3-2.2,13.2c-8.1-3.2-16.9-4.4-25.5-5.5c-4.3-0.9-6.9,3.3-9.3,6.1c-3.2,4.3-7.6,7.6-11.8,11c1.3,0.8,2.4,2.9,4.2,2.6
		c2.8-1.5,5.2-3.7,8-5.3c-1.1,4.3-3,8.3-4.7,12.4c-2,4.8-0.9,10.2-1.9,15.2c-1,5.1-3.8,9.6-6.3,14c-0.7-2-1.4-3.9-2-5.9
		c-4.2-2.5-8.5-5-12.8-7.3c-1.9-1.1-4-2.2-5-4.3c-0.3-2.3,0.1-4.7,0.3-7c-2,1.2-4.1,2.2-5.9,3.8c0.1,3.6,1.6,6.9,2.6,10.3
		c-2.4-1.3-4.7-2.6-7.2-3.8c1.1,3.3,2.4,6.5,3.6,9.8c-1.4-0.2-2.9-0.3-4.3-0.4c0.9,1.9,2,3.7,2.5,5.7c-0.8,2.8-2,5.6-1.9,8.5
		c-2.8-0.2-5.6-0.2-8.3,0.3c4.4,3.4,9.9,4.6,14.8,7.2c4.2,1.9,7.9,5,12.3,6.4c4.8,1.1,9-2.2,13-4.3c3.5-1.7,4-7.2,8.4-7.4
		c6.9-1.1,13.6,1.2,20.3,2.2c6,0.8,11.5,3.5,17.4,4.7c8.9,1.6,17.6,4.2,26.7,4.7c10.1,0.6,19.8,4.2,29.9,3.7
		c4.6-0.3,9.2,0.6,13.7,0.8c3.8-1.1,7.1-3.7,9.9-6.3c3.3-4.6,1-10.5-1.1-15.1c-1.3-2.1,0.1-4.3,0.9-6.3c-5.1-4.2-8.2-10.3-11.8-15.7
		c3.3-0.1,6.6-0.1,9.9-0.1c0,1.2,0,2.4,0,3.6c3.6,1,7.2,2,10.8,2.9c-1.7,1.2-3.4,2.3-5.1,3.5c2.9,3.7,7.8,3.4,12,4.3
		c-1.1,1-2.2,1.9-3.3,2.9c3.2,4.4,8.1,7,12.3,10.2c2.3,1.6,3,4.4,3.9,6.9c-4.4-0.2-8.8-0.9-13.2,0c3.4,2.4,7.6,2.7,11.4,4
		c4.6,1.7,7.1,6.2,9.6,10.1c-2.9-1.3-5.9-2.6-9.1-3c0.8,3.7,4.6,5,7.4,6.9c5.4,3.1,10.6,7,13.9,12.4c-5.8-1.2-9.2-7.4-15.5-7.2
		c5,7.1,14.1,10.2,18.3,18.1c-5.9-2.7-11.2-6.6-16.7-10c0.9,6.1,7.7,7.4,11.7,11c4,3.6,8.7,6.7,11.5,11.4c2.5,4.4,4.7,9,6.5,13.8
		c-3.4-1.9-6-4.8-8-8.2c-4-6.7-11.1-10.2-16.8-15.2c-3.4-2.9-5.6-7.1-9.4-9.6c-2.8-1.9-6-3.1-8.5-5.4c-2.1-2.9-1.2-7.6-4.4-9.8
		c-6.2,0.8-11.8,5.3-18.3,3.7c-10.7-2.2-21.6-3-32.1-5.9c-7-1.8-14.2-1.9-21.4-1.5c-8.3,0.5-16.4-1.4-24.7-1.5
		c-6.1,0.3-12.1,1.5-18.2,1.6c-9.5,0.4-18.5,3.4-27.7,5.7c-5.2,1.3-10.6,1.2-15.9,0.2c-5.8-0.9-10.9-3.9-16.7-4.8
		c-6.3-1-12.4-3.4-18.8-3.8c-5.9-0.3-11.9-0.4-17.5,1.7c-7.5,2.9-14.5,7.2-21.2,11.6c0.5,1.5,1,3,1.5,4.6c4.5-2.5,8.8-5.2,13.5-7.3
		c-4.1,5.2-9.9,8.8-14.1,13.9c-0.8,1.3-2.2,4.5,0.6,4c2.1-1.7,3.7-3.8,5.6-5.7c3.4-3.5,7.5-6.1,11.8-8.4c-2.1,4.3-5.1,8-7.5,12.1
		c3.8-2.3,7.3-5.1,11.1-7.4c-2,5.4-5.3,10.1-7.2,15.6c5.9-2.3,9.6-7.9,15.4-10.3c-3,4.6-8.5,7.6-9.6,13.3c3.7-1.8,6.3-5.1,9.2-7.9
		c-0.1,4.2-2.4,7.8-3.2,11.8c5.7-0.9,7.8-6.8,12.5-9.5c-1.3,3.6-3.5,6.8-5.5,10.1c4.2,0.5,6.9-3.6,10.5-5c-1.2,2.5-2.5,5-3.9,7.4
		c5.8,1.8,12,1.2,18,1.6c13.6,0.9,27.3,0.4,41,0.6c9.9,0.3,19.6-2.1,29.4-3.2c10.9-1.5,21.7-3.8,31.9-7.8
		c10.5-2.5,19.6-10.3,30.9-9.2c-2.5,2.4-5.1,4.9-8.4,6.2c-3.3,1.3-6.6,2.5-9.2,5c3.6-0.1,7.3-0.5,10.9-0.7
		c-3.7,5.7-10,8.6-15.6,11.9c-5.4,3.2-12.1,2.6-17.7,5.4c-3.9,1.9-7.7,4.2-11.1,6.9c-3.3,3.1-8.3,2-12.4,2.7c3.8,2.8,8.6,3.4,13,4.8
		c0.9,2.4-2.8,3.2-4.5,3.5c-6.5-0.3-12-4.5-18.4-5.3c-10-1-19.9-2.1-29.8-3.8c-6.6-1.1-13.2,0.2-19.8,0.9c-3.4,0.4-7.1,0.8-9.4,3.7
		c-5,5.5-8.6,12-13.1,17.9c-2.1,2.7-4,5.6-5.8,8.6c1.7,0.9,3.2,2.3,5.2,2.5c2.1-0.8,3.9-2.1,5.7-3.4c-0.5,3.3-0.9,6.6-0.9,9.9
		c2.3-0.8,4.7-1.7,6.9-2.8c-0.3,2-0.6,3.9-0.9,5.9c2.1-0.9,4.2-1.9,6.3-2.9c0.9,1.7,1.9,3.4,2.8,5.1c2.9-1.5,5.7-2.9,8.5-4.5
		c0.2,2.8,0.3,5.6,0.7,8.5c2.6-2.6,4.8-5.5,6.8-8.5c0.4,0.3,1.1,0.9,1.5,1.2c-0.3,2.6-0.5,5.1-0.6,7.7c3.8-1.7,6.6-4.9,9.4-7.9
		c0.6,2.1,1.2,4.2,1.8,6.3c2.5-1.8,5-3.5,7.5-5.2c0.5,1.4,1,2.8,1.5,4.2c3.2-1.5,5.9-3.8,8.4-6.3c0.4,1.8,0.9,3.6,1.3,5.5
		c3.8-1.1,6.3-4.2,8.4-7.4c0.9,1.9,1.8,3.8,2.8,5.7c1.1-2.2,2.2-4.4,3.2-6.6c1.3,1,2.7,2.1,4,3.1c0.6-0.1,1.9-0.3,2.5-0.4
		c0.4-3.5,0.7-7,1-10.4c2,1.5,4.1,2.9,6.3,4.2c0.3-2.6,0.6-5.1,0.8-7.7c2.1,1.2,4.2,2.4,6.3,3.6c0.2-1.9,0.4-3.8,0.7-5.7
		c1.3,1.8,2.5,3.8,4.2,5.3c2.3,0.8,4.9,0.5,7.3,0.6c-2.2-3.7-4.9-7.1-7.3-10.7c2.1,0.4,4.5,0.3,6,2c3.1,2.9,6,6.1,9.6,8.5
		c-0.4-2.9-0.9-5.8-1.3-8.7c4.3,1.9,7.4,5.9,11.9,7.3c-0.7-4.9-3.8-9.1-5.1-13.8c0.5,0.1,1.4,0.3,1.9,0.4c1.7,3.9,4.2,7.7,8.7,8.7
		c-0.4-4.2-1.2-8.4-1.4-12.6c3.4,3.8,5.8,8.4,8.2,12.8c1.4,0.1,2.7,0.2,4.1,0.3c-0.1-3.3-0.2-6.6-0.3-9.9c1.9,3.2,4.1,6.2,6.9,8.7
		c-0.3-4.7-1.2-9.2-1.8-13.9c3.5,4,5.9,8.9,8.3,13.6c0.6,0.1,1.9,0.3,2.5,0.3c-1.1-5.7-3-11.3-3.7-17.1c2.8,3.5,4,7.8,6.2,11.7
		c1.1,2.5,4.2,2,6.4,2.6c-0.9-4.1-2-8.1-2.7-12.2c3.2,3.7,4.8,8.7,8.8,11.8c-0.8-4-2-7.8-2.9-11.7c3.3,3.1,4.9,7.3,6.5,11.5
		c1.1,3.1,3.7,5.2,6.3,7c-1.2-3.2-2.7-6.2-3.9-9.4c5.5,3.7,7.6,10.8,13.6,13.8c-0.6-4.5-4.1-8.1-4.3-12.7c6,1.1,11,4.7,15.9,8.2
		c1.4-1.7,4.6-3.1,3.4-5.7c-2-3.4-4.8-6.1-6.6-9.7c4.4,1.7,7.4,5.5,10.9,8.5c3.2-0.6,6.7-0.8,9.2,1.6c5.6,3,4.4,10.4,8.8,14.5
		c-0.6-8.2-1.8-16.4-2.2-24.6c1.8,3,3.2,6.2,4.1,9.5c1.2,4.3,3,8.7,2.6,13.2c-0.1,3.5-1.2,7.2,0.6,10.4c4.1-3.8,3.2-10,5-14.9
		c0.4,0.4,1.4,1.1,1.8,1.5c-1,5.3-2,10.6-2.8,16c-1.4,0-2.9,0-4.3,0.1c0.2,2.9,1.4,5.5,3.4,7.6c2.2-2.5,4.2-5.1,6-8
		c1.5,2.4,3.1,4.7,5,6.9c2.8-4.8,4.7-10.2,4.1-15.9c-0.8-7.4-0.9-14.8-0.8-22.2c1.4,4.3,2.9,8.6,3.2,13.1c0.6,7.4-0.6,14.9,1.4,22.2
		c1.2-1.5,2.8-3.1,2.8-5.2c0.9-11.7-1.6-23.2-3.6-34.6c-0.6-3.9-0.6-7.9-1.9-11.6c-1.2-3.2-3.1-6.1-4.2-9.3
		c-3-8.5-4.6-17.3-7.5-25.8c0.5,0,1.4-0.1,1.9-0.1c2.1,4.8,4.7,9.4,8.4,13.2c0-6.2-3.8-11.6-4.1-17.7c-0.2-5.6-0.2-11.2-1.1-16.8
		c0.4,0.1,1.3,0.3,1.7,0.4c4.1,8.9,7.1,18.4,12.7,26.5c-1.4-6.6-4.1-12.9-5.3-19.5c-1.3-7.6-5.2-14.3-7.7-21.4
		c-2.3-6.7-6.3-12.7-7.8-19.6c2.5,1.4,4.7,3.2,6.9,5c0.2-2.6,0.7-5.4-0.4-8c-1.5-3.6-4.1-6.6-6.2-9.8c-2.8-4.3-4.7-9-6.2-13.8
		c3.5,3.6,6.5,7.6,10.2,11c0.7-2.9,1.5-5.9,0.8-8.8c-0.8-4.3-3.6-7.9-5.2-11.8c-1.1-2.6-1.5-5.4-1.9-8.2c2.3,1.8,4.5,3.6,6.8,5.3
		c0-2,0.7-4-0.1-5.9c-2-3-5.1-5.3-6.2-8.9c-2.1-6.5-4.6-13-6.3-19.6c4.3,4,6.9,9.5,11.2,13.5c0.1-3.9,0.8-8.2-1.2-11.7
		c-2.3-4.2-5-8.2-7.7-12.2c-3.4-5.2-8-9.7-9.9-15.7c3.8,2.6,6.8,6.1,10.5,8.8c-3.5-11.1-13.3-20.5-11.7-32.9
		c2.8,2.3,4.7,5.4,6.5,8.5c2.3,3.8,6.4,5.5,9.7,8.2c3.4,2.7,5.3,6.7,7.7,10.3c5.7,8.4,10.5,17.7,12.4,27.8c1.1,5.3,5.8,8.8,8.1,13.5
		c3.2,6.3,7.6,12,9.1,19c-4.9-4.1-8-9.7-10.6-15.5c-1.8-3.7-3.7-7.8-7.8-9.5c-0.1,3.3,0.5,6.8,2.7,9.5c4.1,5.6,8,11.4,11.8,17.2
		c2.9,4.4,3.3,9.8,5.6,14.5c1.2,2.5,2.2,5.1,2.7,7.9c-5.3-5.6-8.7-12.6-12.2-19.4c-3.4-4.7-6.4-9.9-11.2-13.3
		c-0.6,2.8-1.6,5.9,0,8.6c2.2,4,5.2,7.7,7,12c4.1,9.3,9.7,17.9,13.8,27.1c2.5,5.5,2.8,11.6,4.8,17.2c1.6,4.4,3.5,8.8,4.7,13.4
		c3,11.9,8.9,22.8,12.5,34.5c2,5.1,2.5,11.9,8.2,14.4c-0.3-4.6-0.9-9.2-1.3-13.8c4.6,4.7,7.5,10.7,12.2,15.3
		c4.5,4.9,10.8,8.5,13.1,15c-3.1-1.8-6-4.2-9.5-5.2c-2-0.7-4.4-0.9-5.7-2.8c-2.1-2.7-4.3-5.5-7.5-6.8c0.8,5.1,4.9,8.5,8,12.2
		c4.9,6.1,11,11.2,15.6,17.7c-5.4-1.3-10.6-3.8-14.9-7.3c-5.2-3.9-8.6-9.6-12.2-14.8c-1.5,0.1-2.9,0.2-4.3,0.2
		c-2.2-5.8-5.1-11.2-8.3-16.5c0.5,4.5,0.7,9,0.2,13.5c-0.6,5,2.1,9.5,3,14.2c1.5,5.5,1.2,11.6,4.5,16.4c3.6,5.4,7.9,10.2,11.6,15.4
		c1.9,2.5,3.7,5.3,6.7,6.6c1.8,0.6,3.4-1.1,4.7-2.2c4.2-4.2,8.1-8.7,11.5-13.6c3-4.4,7.1-8.2,8.6-13.4c1.8-5.7,5-10.7,7-16.3v9.6
		c-8.7,16.3-17.7,32.8-31,45.8c-6,6.4-10.9,13.8-16.6,20.5c-4.9,5.8-11.4,9.9-16,16c-2.9,3.9-7.7,5.5-10.9,9.1
		c-4.3,4.7-9.1,9-12.5,14.5c-3.3,5.5-8.4,9.8-11.5,15.5c-4.6,8.7-12.5,14.8-19.4,21.5c-11,10.7-22.1,21.2-33,32
		c-7.1,6.3-15.1,11.5-21.7,18.4c-4.6,4.8-9.7,9-14.6,13.4c-5.3,4.8-12,7.8-17.1,12.9c-3,3-6.2,5.9-10,8c-4.4,2.5-8.1,6-12.5,8.5
		c1.1-2.7,2.9-5.2,3.2-8.1c0-1.8-1.9-2.5-3.2-3.2c-3.3-1.4-6.6-2.5-9.7-4.3c-6.3-3.7-13-6.3-19.5-9.5c-5.5-2.6-12-2.5-17.2-5.7
		c-5.4-3.3-10.5-7-15.8-10.5c-1.3,0.6-2.6,1.2-4,1.8c-0.8-1.7-1.7-3.5-2.5-5.2c-1.4,0-2.8,0-4.2-0.1c-2.1-3.5-4.3-6.9-6.6-10.3
		c-1.6,1-3.2,2-4.9,3c-3.8-4.7-7-9.7-10.5-14.6c-1.1,1.2-2.2,2.5-3.3,3.7c-1.6-2.3-3.2-4.6-4.9-6.9c-1.5,0.8-3,1.6-4.5,2.4
		c-1.5-5.5-0.4-11.7-3.7-16.6c-1.1,2.8-1.9,5.8-2.6,8.7c-0.3-0.2-1-0.5-1.4-0.7c-1-4.1-2-8.2-4.1-11.9c-4-6-1.5-13.4-1.8-20.1
		c-1.4-0.4-2.8-0.8-4.1-1.2c-0.1,4.1-0.3,8.3-1.3,12.3c-1.5-3.2-2.6-6.5-4.2-9.5c-1.6-3-5.3-4-7.3-6.6c-1.3-1.9-2.2-4-3.2-6.1
		c-1.2,0.8-2.4,1.6-3.5,2.6c-0.9,2-0.8,4.2-1.1,6.3c-4.2-3.9-7.9-8.3-11.2-13c-1.2-1.9-3.3-2.9-5.4-3.7c0.4,5.5,1.8,10.8,2.5,16.2
		c1.2,9,1.9,18.1,4.2,27c2.5,10,2.7,20.3,3.5,30.5c1.5,10,3.2,20,3.5,30.1c0.1,8.1,1.7,16,2.9,24c1.2,7.1,2,14.4,4.4,21.2
		c1.8,5.3,1.8,11,2,16.6c12.5-3.5,24.4-9.1,37.2-11.7c7.6-1.6,15.2-3.2,22.5-5.7c6.6-2.3,13.5-3,20.2-4.8c7.9-2.3,16.3-2.3,24.1-5.1
		c7-2.5,14.6-1,21.6-3.2c3.7-1,7.3-2.7,11.1-3.5c11.2-1.5,22.5,0.4,33.6,1.4c14.5,2.1,29.8,2.7,43.1,9.6c4.5,2.1,9.5,2.8,13.8,5.3
		c4.7,2.7,8.8,6.2,13.8,8.2c6.4,2.5,11.9,6.8,17.9,9.9c5.6,2.9,9.8,7.5,14.7,11.3c4.3,3.5,8.1,7.4,11.9,11.3
		c6.9-6.7,8.6-16.7,14.6-24c6.3-7.4,10.5-16.3,15.2-24.7c3.8-8.5,10.3-15.1,14.9-23.1c3-5.2,6.4-10.2,10.2-14.9
		c5.1-6.6,9.7-13.7,14.9-20.2c3.2-4.1,7.6-7.1,10.8-11.2V1162H442l-109.5,0c0,0,82.9-27.6,109.5-39.6c4.1-1.8,8.4-2.9,12.6-4.3
		c5.6-1.6,10.9-3.8,16.6-4.8c5-1.3,10.3-1.9,15-4.3c6.1-3.2,12.6-5.5,19-8.2c4.7-2,10.1-2,14.7-4.3c9.3-4.4,19.1-8,28.2-12.8
		c7.4-3.6,15.3-6.4,22.9-9.6c9.3-2.9,17.3-8.5,25.7-13.2c10.2-5.1,21.8-7.4,31.2-14.1c13-4.5,26.1-9.7,37.4-17.8
		c3.5-1.9,7.1-3.9,10-6.7c7.8-9,15.2-18.2,22.3-27.7c4.6-5.3,9.7-10.3,13.8-16.1c5.6-7.7,12.5-14.5,16.9-23
		c3.6-6.9,9.3-12.2,13.9-18.2c5.3-7.4,15.3-8.5,21.2-15.2c-2.9-2.7-5.4-5.8-7.5-9.3c-1.1,0.9-2.1,1.8-3.1,2.8
		c-4.1-2.5-5-7.7-8.9-10.2c-1.9,0.9-3.5,2.3-5.3,3.5c-3.1-1.5-6.8-3-8.3-6.4c-2.2-3.4-1.5-8.7-5.7-10.5c-0.5,0.8-1.5,2.3-2,3
		c-2.9-4-3.8-8.9-5.9-13.2c-1.6,3.2-2.4,6.6-3.1,10.1c-3.7-3.4-4.4-8.7-5.6-13.3c-2.2,0-4.4,0.1-6.6,0.1c-0.6-5.2,0.3-10.7-1.8-15.7
		c-1.8-4-2-8.6-4.9-12c-3.3-4.3-4.5-9.7-5.4-14.9c0.4-4,2.5-8.1,0.2-11.9c-4-6.9-2.2-14.9-2.1-22.5c0.4-3.3-0.1-6.6-0.8-9.8
		c0.9-4.5,3.1-8.6,5.9-12.1c6.6-8.9,10.8-19.3,13.8-29.9c-2.5-11.9-7.1-23.6-7.7-35.9c1.6-6.8-0.3-13.7,1-20.5
		c1.3-6.1-0.4-12.3-0.7-18.4c-0.8-9-5.3-16.9-8.2-25.2c-2.1-5-4.9-9.7-7.2-14.6c-4.4-9.1-10.4-17.4-14.3-26.7
		c-4.2-7.4-8.3-14.9-12.6-22.3c-2.2-3.9-3.6-8.2-5.8-12.1c-2.7-4.7-4.4-9.8-6.7-14.6c-3.2-7.2-2.1-15.1-3.4-22.7
		c-0.7-4.4-0.5-8.9,0.8-13.2c1.3-4.2,0.1-8.8,2.1-12.7c1.8-3.8,3.9-7.5,5.4-11.5c2-5.4,6.9-9.4,7.2-15.4c0.4-7,1.3-14.2-1-21
		c-2.2-7.7-2-16.1-5.8-23.4c-4.9-7.3-8-15.6-13.2-22.8c-3.1-6.6-7.4-12.7-8.5-20c0.6,0.4,1.9,1,2.5,1.4c0.7,0.8,1.4,1.6,2.2,2.4
		c0.8-0.2,1.7-0.4,2.5-0.5c6.8,5.9,12.2,13.4,20.4,17.5c0.6-1.7,1.9-3.4,1.5-5.3c-4.5-3.7-10.7-5-14.6-9.6c-3.5-4.1-7.5-8-9.8-12.9
		c0.3-4.3,2.6-8.2,4.5-12c4.3-8.9,11.2-16,17.7-23.3c7.3-7.8,12.9-17.1,19.8-25.2C677.8,324.8,680.3,319.5,684.2,315.2 M676.1,370.7
		c3.4,3.9,7.4,8.6,13,8.9c0.4-1.9,0.8-3.7,1.3-5.6c-3.8-2.1-7.2-5-11.3-6.5C676.8,366.9,674.5,368.5,676.1,370.7 M667.2,377
		c3.2,2.8,6.4,5.9,10.2,7.9c1.7,0.9,3.4-0.6,5-1c-2.2-4.1-5.8-7.3-9.6-9.8C670.5,373.5,668.8,375.7,667.2,377 M809.8,377.1
		c0.3,4.2,2.1,8.1,4.2,11.7c0.7-0.1,2-0.2,2.6-0.3c0.1-2.4,0.4-4.8,0-7.1c-0.5-2.9-2.7-5-4.6-7C811.2,375.2,810.5,376.2,809.8,377.1
		 M662,382.6c2.2,4.1,5.6,7.4,9.5,9.9c1.1,0.8,2.3,1,3.6,0.6c1.5-3.1-2.1-4.7-4.2-6C668,385.5,665.6,382.5,662,382.6 M649.5,382.5
		c-0.3,4.7,4.2,7.1,7.2,9.8c3.7,2.7,6.5,7,11.2,8.1c1.1-0.8,2.1-1.6,3.1-2.4c-3.5-4.6-8.9-7-12.9-11.1
		C655.8,384.5,653.1,381.9,649.5,382.5 M639.3,386.1c-1.4,0.5-2.5,2.4-1.2,3.6c3.8,4.3,7.8,8.6,12.9,11.4c3.3,1.7,6.4,3.7,9.5,5.5
		c2.2,2.2,5.6-2.4,3.4-4.3c-3.3-2.9-7.4-4.6-10.9-7.3c-3.6-2.3-6.4-5.6-9.9-8.2C642,386.2,640.5,385,639.3,386.1 M720.5,394.5
		c-9.8,0.9-20,1.2-28.8,6.2c-2.8,1.5-3.6,4.9-4.7,7.6c-1.7,5.3-5.1,10.1-4.9,15.8c4.8-2.4,8.6-6.2,13.3-8.6
		c12.3-6.5,25.2-12.2,39-14.7c3.5-0.7,7.2-0.6,10.7-1.7c1.3-1.7,2-3.9,2.2-6c-1-1.4-2.9-1-4.4-1.3
		C735.4,391.4,727.9,393,720.5,394.5 M744.6,411.6c-1.7,1.2-0.8,3.2,0,4.7c2,0.8,4.2,1.3,6.4,1.1c2.1-0.8,3.3-2.8,4.8-4.4
		C752.9,409.8,748.2,409.6,744.6,411.6 M640.6,415.1c0.7,3.4,3.8,5.7,5.5,8.6c1.7,2.2,3.1,6.4,6.6,4.6c-0.3-6.8-5.5-11.5-10.9-14.7
		C641.5,414,640.9,414.7,640.6,415.1 M764.2,421.2c-1,4.9-1.1,10.1,0.7,14.9c4-2.3,4.5-7.1,5-11.2c0.1-1.6,0.3-3.6-1.1-4.7
		C767.5,418.7,764.3,418.8,764.2,421.2 M686.5,436.4c1.4,2.1,4.1,2.8,6.2,3.9c5.1,2.1,9.9,5.2,14.2,8.6c3,2.6,7.2,2,10.7,3.4
		c5.5,2.1,10,6.9,16.2,7.4c9.1-4.2,17.6-9.8,26.7-14.2c0.1-1.2,0.1-2.3,0.2-3.5c-6.5-1-10.8,4.9-16.8,6.2c-4.1,0.3-8-1.4-12-2
		c-5.5-1.3-11.6,0.4-16.8-2.5c-9.2-3.2-18-7.5-26.6-12.2C687.7,433,685.3,434.4,686.5,436.4 M694.2,454c3.8,5.1,10.2,6.9,14.5,11.4
		c3,2.5,5.5,6.4,9.6,6.8c-1.3-5-6.4-8-10.3-11.1c-4.3-2.4-6.3-7.1-10-10.1C696.2,451.1,695.4,453,694.2,454 M708,455.2
		c2,1.6,4.2,3.1,6.3,4.6c3.1,2.1,5.7,5.4,9.8,5.4c-2-3-4.5-5.6-6.8-8.4C714.1,456.3,711.1,455.6,708,455.2 M676.3,460
		c2.8,6.1,8.4,10.1,12.5,15.2c8.8,9.2,16.9,19,25.5,28.4c5.6,7.3,13.2,12.8,18.6,20.4c5.5,6.8,12.2,12.6,17.2,19.8
		c4,4.5,6.6,10.7,12.2,13.4c-0.2-1.8-0.4-3.6-1.5-5c-4.3-6-8.1-12.4-13.1-17.9c-4.6-5.2-7.8-11.4-12.9-16.1c-3.3-3-5.7-7-8.9-10
		c-9.6-8-18.1-17.3-26.5-26.5c-5.2-4.9-9.2-10.8-13.7-16.2c-1.8-2.3-3.1-5.2-5.8-6.6C678.6,458.9,677.4,459.3,676.3,460
		 M689.9,458.9c-1.2,2.5,1.5,3.8,3.1,5.1c6.8,4.7,13.5,9.7,19.2,15.8c3.7,3.7,6.2,8.7,11,11.2c-4.7-9.5-13.1-16.4-20.3-23.9
		C698.7,464.2,695.6,458.5,689.9,458.9 M667.4,460.9c-0.4,1-0.8,1.9-1.2,2.9c6.8,7,12.2,15.1,19.3,21.7c3.7,3.9,7.3,8,10.9,12
		c4.4,5.9,10,10.9,13.7,17.3c6,7.7,12.2,15.1,19,22c5.8,6.2,11.1,12.8,17.1,18.9c4.4,4.4,7.6,10.1,12.8,13.7c2.7,0,2.6-3.3,2.6-5.2
		c-2.2-3.7-5.8-6.2-8.5-9.4c-7.4-8.6-14.9-17.1-22.6-25.3c-3.7-4.3-8-8-11.4-12.6c-3.2-4.4-7.4-7.9-11.1-11.9
		c-5.4-5.8-8.8-13.1-14.2-18.8c-7.2-7.5-15-14.4-21.4-22.6C671.2,461.9,669.3,461.3,667.4,460.9 M696.6,471.8c0.4,1.9,1,3.9,2.6,5.1
		c4.8,4.2,9.4,8.5,14,12.9c4.1,3.6,7.7,8.1,12.9,10.1c-4.9-6.9-11.8-12.2-17.1-18.9c-2.3-2.7-4.2-5.9-6.9-8.2
		C700.4,471.9,698.4,472.1,696.6,471.8 M664.3,475.9c-1.6,1.2-2.1,3.9-0.8,5.5c4.4,6.8,10.7,12,15.7,18.4
		c8.8,12.1,20.3,21.7,30.4,32.6c9.5,10.8,20.5,20.2,29.3,31.7c3.9,5.4,9,9.7,13.8,14.2c1.6,1.4,4.5,3.3,6,0.7
		c-1.1-2.9-3.7-4.7-5.9-6.7c-5.6-4.4-9.8-10.2-14.7-15.2c-8-10.3-17.6-19.2-25.7-29.4c-7.3-9.6-16.9-17.2-24.1-26.8
		c-4.5-6.1-10.7-10.7-15.4-16.7c-2.5-3-4.7-6.3-7.7-8.9L664.3,475.9 M736.7,477.1c1.4,4.8,6,7.4,9,11.2c1.8,1.5,3.5,5,6.3,3.7
		c1-1.9-1.2-3.5-2.3-4.8C745.5,483.7,741.2,480.4,736.7,477.1 M721,480.9c2.8,3,6.1,5.4,9.3,7.8c3.5,2.6,6.3,6,9.8,8.5
		c2.6-2.4,1.1-7.8-1.9-9.4c-4.2-2.6-7.3-6.3-11.2-9.2C724.7,478.3,722.9,479.9,721,480.9 M660.7,497.2c5.4,6,10.3,12.4,15.9,18.2
		c4.9,5.2,8,11.8,13.3,16.7c5.2,4.8,10.4,9.6,14.9,15.1c3.8,4.5,8.2,8.5,12.2,12.8c6.5,6.5,12.3,13.7,19.3,19.7
		c5.4,4.6,9.6,11.1,16.7,13.2c-3.1-4.2-7.2-7.5-10.7-11.3c-2.4-2.5-1.9-6.4-4.1-9c-2-2.3-4.1-4.6-5.7-7.2c-4.5-7.3-11-13-17.2-18.8
		c-5.9-4.1-10-10-15.3-14.7c-3-2.7-5.5-5.9-7.9-9.1c-3.3-4.4-7.4-8-11.3-11.7c-6.7-6.2-10.6-15-17.9-20.6
		C659.5,490.1,658.4,495.3,660.7,497.2 M777.8,501.3c1.1,1.3,1.8,3.6,4,3.4c1.8-1.7,3-4.2,2.4-6.7
		C781.8,498.7,779.8,500,777.8,501.3 M774.1,506.3c0.1,3,3,4.8,5.8,4.6c-0.3-2.2-1-4.2-2-6.2C776.6,505.2,775.3,505.7,774.1,506.3
		 M656.2,506.7c0.7,1.9,1.4,3.9,2.5,5.6c6.8,10.4,15.4,19.4,22.7,29.4c5.4,5.6,11.6,10.4,15.9,17c9.4,11.2,20.2,21.1,30.8,31.2
		c3,2.7,5.4,6.3,9,8.2c1.8,0.2,3.5-0.9,5.2-1.4c-6.9-8.4-15.9-14.9-22.3-23.8c-5.1-6.8-12.4-11.6-17.3-18.7c-2-2.9-4.7-5.3-7.5-7.6
		c-3.5-2.9-6.3-6.4-9.4-9.6c-6.4-6.3-10.8-14.4-17.5-20.4c-3.5-3-5.5-7.1-8.5-10.4C658.6,506.4,657.4,506.5,656.2,506.7
		 M768.2,512.8c2.1,2.2,4.3,4.8,7.6,5c-0.2-3.2-2.5-6.1-5.6-7C769.7,511.3,768.7,512.3,768.2,512.8 M739.2,515.2
		c-0.1,0.4-0.2,1.3-0.3,1.7c3.9,5.7,10,9.6,13.6,15.6c4,5.3,7.2,11.4,12.5,15.6c0.7-1.3,1.3-3,0.1-4.2c-6.9-9-13-18.8-21.3-26.6
		C742.4,516.2,741.1,514.7,739.2,515.2 M761.2,516.2c0,5.8,5.3,9.5,8.4,13.8c1.3-1.2,2.9-2.8,2-4.7c-1.4-3-3.6-5.6-5.9-8
		C764.6,516,762.7,516.5,761.2,516.2 M752.7,521c1.5,3.1,4.1,5.4,6.1,8.1c2.9,3.5,5,7.8,9.1,10.1c0.3-2.2,1-4.7-0.7-6.4
		c-3.5-4.5-7.1-8.9-11-13.1C755.1,517.9,753.1,519.6,752.7,521 M662.8,534c2.4,7.2,8.7,12.1,13,18.1c4.1,6.1,10.1,10.7,14.3,16.8
		c4.1,5.9,9.4,10.7,14.8,15.2c3.7,3.3,7.2,7.2,12.4,8.2c-3.3-5.8-8.5-9.9-12.4-15.2c-3.7-4.9-8.5-8.8-12.7-13.3
		c-5.1-5.3-8.6-12-14-17C673.3,542.3,669.2,536.4,662.8,534 M649.8,534.9c0,2.7,1.9,4.8,3.2,7c2.4,3.6,4.1,7.9,8,10.1
		c4.8,2.8,9.1,6.5,13.9,9.2c-3.1-7.7-8.9-13.9-15.5-18.7C656.1,540.1,654.8,533.9,649.8,534.9 M701.2,594.8
		c3.8,2.8,7.2,6.3,11.8,7.5c-2.5-3.6-5.7-6.6-8.3-10c-1.5-1.7-3.1-4.2-5.8-3.8C695.9,590.9,699.2,593.2,701.2,594.8 M717.5,591.5
		c2.2,4,5.1,7.5,8,11c1.5,2.2,4.5,1.3,6.8,1.5c-0.8-1.8-1.9-3.5-3.6-4.7C725.1,596.5,722.1,592.7,717.5,591.5 M766.4,622.6
		c3.3,3.4,5.6,7.8,9,11.2c0.7,1.3,4.2-0.2,2.8-1.6c-1.5-3.5-5.7-4.5-8-7.3c-3-4-5.1-8.5-7.6-12.8C760.1,616.1,764,619.7,766.4,622.6
		 M755.9,616.3c-0.1,2-0.2,4.1,0.9,5.9c3.8,7.2,9,13.5,14.3,19.7c0.8-1,1.6-1.9,2.4-3c-1.4-3.2-4-5.6-6-8.5
		c-3.3-4.3-5.6-9.2-7.8-14.1C758.5,616.3,757.2,616.3,755.9,616.3 M750.5,624c1.6,3.4,3.9,6.5,5.7,9.8c3.7,6,6.8,12.6,12,17.5
		c1.1-0.9,2.7-2.3,1.6-3.9c-2.8-5.1-6.9-9.4-9.5-14.5c-2.2-3.7-3.3-8.1-6.4-11.2C752.1,620.8,751.1,622.5,750.5,624 M744.3,628.4
		c-1,3.1,1.7,5.6,3.2,8c5.8,9,10.1,19,16,28c1.1,1.3,2.2,3.8,4.2,2.4c1-6.7-5-11.2-8.1-16.4c-4.9-7.9-8-16.8-12.8-24.7
		C745.9,626.6,745,627.4,744.3,628.4 M738.7,639.9c1.5,4.6,4.3,8.7,6.3,13.1c3.6,8.1,7.7,16.1,12.4,23.6c0.9,2,3.4,2.1,4.7,0.3
		c2.3-1.5,1.2-4.2,0.2-6.2c-3.3-6.5-7.1-12.7-11.4-18.6c-3.2-5.8-5.9-11.9-9.9-17.2C739.8,636.4,737.8,637.8,738.7,639.9
		 M731.4,648.4c-0.6,2.7-0.2,5.6,1.1,8.1c4.6,9.3,9.9,18.2,15.5,27c2.4-0.7,4.7-1.4,7.1-2.1c-0.9-4.6-4.8-7.5-7-11.4
		c-1.9-3.4-3.8-6.8-6-10c-2.7-3.9-4-8.5-6.4-12.7C734.8,645.2,731.7,646.4,731.4,648.4 M726.5,661.4c-1,3.8,0,7.8,2.1,11
		c3.6,5.7,6.1,12,9.8,17.6c2.8,0.2,6-1.6,4.8-4.8c-4.2-7.9-10.2-14.7-13.3-23.2C729.4,660.4,727,659.5,726.5,661.4 M720.9,676.1
		c-0.8,3.3-2.2,7-0.3,10.2c2.2,4.1,3.5,8.6,5.2,13c0.7,2.5,4.4,4.1,6.2,1.8c3.3-3.7,1-8.8-0.7-12.7c-2.7-5-4.4-10.4-6.4-15.7
		C723.5,673.7,721.2,674,720.9,676.1 M1067.9,694.1c3.1,4,5.9,8.2,8.5,12.5c5.3,8.2,7.9,17.7,11,26.8c1.9,5.3,1.3,11.2,3.6,16.3
		c3.1,7.2,5.1,14.9,7.9,22.2c1.6,4,1.5,9,4.7,12.2c0.1-4.9-2.1-9.4-2.8-14.1c-1.8-11-7.6-20.8-9.2-31.9c-1.1-7.3-3.3-14.3-5.7-21.3
		c-2.5-7-7.4-12.7-10.6-19.4c-2.2-3.5-4-7.6-7.4-10.2C1066.1,689,1066.3,692.3,1067.9,694.1 M718.3,697.1c-4,6.3-1.3,14.7,3.7,19.7
		c2.8-1.6,5.2-3.7,6.8-6.5c-3.5-4.2-4.6-10-8.8-13.7C719.5,696.7,718.7,696.9,718.3,697.1 M1063.9,702.5c-2.2,8.8,3.4,16.4,6.3,24.2
		c2.6,7.1,7,13.4,9.5,20.6c3.2,6.8,2.3,14.6,5.6,21.4c2.7,5.7,4.5,11.8,5.9,18c0.7,0,2.2,0.1,2.9,0.1c0.2-2.9,0.8-5.9,0-8.7
		c-1.3-3.5-3.9-6.4-5.3-9.9c-2.7-8-1.3-16.5-2.5-24.7c-3.2-8.3-7.5-16.3-11.8-24.1C1071.7,713.6,1070.4,705.7,1063.9,702.5
		 M1063.1,729.9c1.2,6.2,3,12.3,6.3,17.7c4,6.8,4.8,14.7,6.8,22.2c1.6,5.9,2.5,12.1,2.2,18.2c-0.3,4,0.9,8,3,11.4
		c2.7-4,1.9-9,2.2-13.6c1.4,1.9,2.2,4.5,4.7,5.3c0.1-7.2-5.3-12.8-6.5-19.7c-1-4.8-1.8-9.6-2.6-14.4c-1.3-7.6-5.8-14-9.3-20.7
		c-1.9-3.3-3.2-7-5.8-9.9C1062.9,727.4,1062.6,728.6,1063.1,729.9 M759.1,773.3c-1.5,1.8,0.8,3.4,1.9,4.7c1.9-2.2,5-4.6,3.9-7.9
		C762.4,768.6,760.4,771.6,759.1,773.3 M765,781.8c0.8,0.2,2.3,0.6,3.1,0.7c0.9-2.5,2.2-4.9,2-7.6C766.7,775.1,766,779.1,765,781.8
		 M805.3,809.2c-5.9,4.3-11.9,9-16,15.1c-2.3,2.6,2.9,6.9,5,4.1c4.2-3.3,6.5-8.3,9.8-12.4c2.6-3.2,6.4-5.5,7.5-9.6
		C809.4,806.9,807.2,807.8,805.3,809.2 M779.5,817.5c-2.1,2.5,0.9,5.1,2.6,6.7c2.6,0,4.6-2.1,6.4-3.7c2.8-3,6.1-6,6.6-10.4
		C790,812.8,784.5,814.7,779.5,817.5 M1066.3,809.8c1.5,4.4,4.1,8.5,4.6,13.3c1,4.8,0.9,10.3,4.1,14.3c3.3,0.6,2.4-3.4,2.4-5.4
		c-1.3-7.7-3.2-15.3-6.1-22.6C1069.6,809.5,1067.9,809.6,1066.3,809.8 M1016.2,834.2c0,0.6,0.1,1.9,0.1,2.5c0.6,0,1.9,0,2.5,0
		c-0.1-0.5-0.4-1.5-0.5-2C1017.8,834.6,1016.7,834.3,1016.2,834.2 M1106.3,840.1c-2,1.6-0.9,4.4,0.7,5.8c4,3.8,9.1,6.4,14.2,8.4
		c-2.6-3.8-6.1-7-8.8-10.7C1110.9,841.7,1109.1,838.8,1106.3,840.1 M1103.8,850.7c0.4,1.3,0.5,3,1.5,4c4.5,4.6,9.9,8.5,16.2,10.2
		c0.7-1.4,1.5-2.9,2.2-4.3c-3.8-1.7-7.9-2.7-11.1-5.3C1109.9,853.4,1107.6,850.1,1103.8,850.7 M1100.9,863.7
		c2.6,3.2,5.1,6.4,8.4,8.9c1.4-0.2,2.6-1.1,3.8-1.7C1110.2,867,1106,864.1,1100.9,863.7 M1095.2,872.3l-0.7,0.7
		c2.2,4,7.1,5.9,11.4,6.7c1.8-0.4,5.6-1.7,4.5-4c-3.7-0.8-7.5-1.3-11-3C1098.1,872.4,1096.3,870.8,1095.2,872.3 M1076.2,878.3
		c-0.6,4.2,4.2,4.8,7.4,4.2c1.1-0.5,0.9-2.1,1.4-3C1082.1,878.8,1079.1,878.3,1076.2,878.3 M1088.7,882.4c2.6,3,6,5.4,9.4,7.5
		c3.7-0.5,6.2-3.5,8.1-6.4C1100.4,883.6,1094.5,883.2,1088.7,882.4 M1081.8,890.8c1.1,2,2.2,4.3,4.4,5.3c2.5,1.1,3.8-2,5.5-3.3
		C1088.7,891,1085.2,890,1081.8,890.8L1081.8,890.8z"/>
	<path class="st1" d="M584.3,308.2c0.3,0,1,0,1.3,0c0.6,5.8,1,11.6,2.3,17.4c0.9,3.9,3.8,6.9,5,10.7c2.6,11.6,12,20.2,14.6,31.8
		c-2.3-1-5.1-1.7-6.5-4c-3.6-5.3-6-11.3-9-16.9c-2.7-6.5-7-12.6-6.7-19.9C583.6,321,583.2,314.6,584.3,308.2L584.3,308.2z"/>
	<path class="st1" d="M595.5,329.6c2.2,1.3,5.1,2.2,5.9,5c1.4,3.6,2.6,7.3,4.3,10.8c2.4,5.4,6.2,10.1,8.5,15.6
		c0.5,1.3,1.1,3.1-0.4,4c-2.3,0-4.6-1.1-5.4-3.4c-2-5.1-6.2-9-7.8-14.3C598.6,341.5,595.9,335.8,595.5,329.6L595.5,329.6z"/>
	<path class="st0" d="M1021.6,340.6c3.4-3,7.2-5.5,11.3-7.4c-1.8,4.2-4.3,8-7.5,11.3c-1.3,1.2-1.7,2.9-1.8,4.6
		c7.1-2.1,13.1-7.2,20.7-7.5c-0.8,5.6-6,8.6-9.1,12.9c6.2,0.9,11.6-3.3,17.8-3.4c-2.1,4.8-7.6,6.9-9.3,11.9
		c6.1-0.8,11.2-4.9,17.4-4.8c0.1,7.2-10.4,6.9-10.7,14c6.5-0.2,12.4-2.8,18.7-3.9c-2.6,5.3-10.1,5.4-12.5,10.9
		c6.6,0.7,12.9-1.9,19.4-1.8c-1.3,5.1-7.3,5-10.7,8c-0.1,0.4-0.2,1.3-0.3,1.7c7,1,14.1-3.1,20.9-0.3c-2.2,2-5.1,3.5-6.5,6.3
		c2,2.4,5.8,1.2,8.6,1.6c-1.6,1.3-3.3,2.6-4.9,3.9c6.1,1.6,12.4,0.4,18.5,0.2c7.2-0.2,14.1-2.6,21.3-2.4c-1.8,1.6-3.6,3.9-6.2,4.1
		c-4.2,0.4-8.5,0.6-12.7,1c0,0.5,0.1,1.6,0.2,2.1c5,1.2,10.2,2,15.1,3.5c-5.5,6-14.3,2.4-20.6-0.3c-5,1.2-9.7,3.8-14.2,6.2
		c-0.9,2.5,2.2,2.9,3.9,2.3c2.1-0.7,4.1-1.6,6.2-2.3c-0.6,1.8-1.2,3.6-1.7,5.5c3-0.4,6.1-0.9,9.1-1.2c-1.3,1.5-2.5,3-3.8,4.5
		c3.5,0.1,6.9-0.5,10.3-1.1c0,1,0.1,2.9,0.2,3.9c3.1-0.4,6.2-0.9,9.3-1.1c-1.4,1.4-2.9,2.6-4.3,3.9c4,1.2,8.1,1.1,12.2,1
		c-0.7,2.6-0.3,7.3-4.2,7c-6.8,0.1-13.5,0.9-20,2.9c1.4,1.5,2.9,3.2,5,3.7c6.3,1.6,12.7,2.1,19.2,2.4c1.5-0.2,2.3,1.2,3.2,2.1
		c-11.8,3.2-24.2-0.6-34.9-5.8c-3.5-1.5-6.2-4.4-9.6-6c-5.6,0.1-11.2-1.3-15.7-4.7c-1.3-2.4-1-5.8-3.6-7.3c-3.2-2.1-6.4-4.3-8.9-7.3
		c-6.3-7.6-16.2-10.3-23.9-16c-6-4.5-13.1-7.2-19.8-10.4c-5.2-2.5-11.1-3.5-16.8-3.9c-3.2-0.2-5.7,1.9-7.7,4.1
		c-3,3.3-6.6,6.1-9.7,9.3c-4.9,5.2-10.8,9.2-16.3,13.8c12.3,2.5,25,2.4,37.2,5.6c4.5,1.6,8.8,3.9,13.5,4.4c5.1,0.6,9.2,4,13.8,5.9
		c5.5,2.4,11.1,4.8,16.3,7.9c3.7-2.4,7.5,0.5,11.2,1.1c4.6,0.9,9.3,1.2,13.9,2.1c-5.2-2.8-10.7-5-15.9-7.8
		c-5.3-2.7-6.5-9.2-7.3-14.5c3.3,2.4,6.5,4.8,9.8,7.1c4.3,3.3,10.2,3.9,14.1,7.8c3.4,2.1,2.1,7.8,6.7,8.6c0,0.4,0.1,1.3,0.2,1.8
		c-1.8,0.5-3.6,0.9-5.4,1.4c0.5,1.1,1.1,2.2,1.6,3.3c-7,0.2-14-0.2-21,0.1c-1.9-0.2-3,1.4-4.3,2.4c-2.5,2.4-6,3-9.2,3.9
		c-6.7,1.7-13.1,4.5-19.8,6.2c-0.5-2.8,1.9-4.7,3.8-6.4c4-3.5,9.8-2.7,14.6-4.4c-3.2-7.2-8.8-14.6-17.1-15.8
		c-1.4,6.5-2.8,14.1-8.9,17.9c-3.8,2-7.8,4.1-12,5.2c-7.7,0.5-15.2-2.1-21.8-5.8c-0.7,0.4-2.1,1.1-2.7,1.4l0.4,3.2
		c1.6,0.1,3.3,0.2,4.9,0.3c0,0.3,0,0.9,0,1.2c-11.7,0.1-23.5,0.1-35.1-2.2c-5.1-0.9-10.4-1.9-15.6-1.8c-2.3,1.1-4.1,3-6,4.7
		c-1.7-1-3.3-2.2-5.1-2.8c-4.8,2-8.1,6.5-13,8.6c-0.2-1.5-0.7-3.1-0.4-4.7c0.7-1.5,2.3-2.3,3.7-3.1c4.4-2.3,9-4.4,13.4-6.7
		c-0.1-2.3-0.2-4.6-0.3-6.9c-2.6-0.6-5.6-0.7-7.7-2.6c-1.6-2.4-1.6-5.5-3.3-7.8c-2.9-3.7-7.1-6.2-9.3-10.5c-2.2-4.3-5-8.2-7.2-12.5
		c1.2,0,2.4,0,3.6,0c2.5,2.9,4.6,6.5,8.5,7.8c0-3.7-2.1-6.9-3.1-10.3c0.2-0.4,0.7-1.2,0.9-1.6c3,3.1,5.3,7.5,10.2,7.6
		c-2.8-3.7-4.6-8-7.1-11.9c-4.2-0.9-8.6-1.3-12.1-4c-7.2,1.7-14.2-2.4-19.9-6.4c-2.2,0-4.5,0.5-6.6-0.1c-1.6-1.8-2.4-4.2-3.3-6.4
		c3.4,0.7,6.8,1.4,10.4,1.3c-0.1-3.5-0.2-7-0.2-10.5c2.9,1.9,5.9,3.7,9.3,4.5c-1.1-3.4-3.1-6.4-4.6-9.6c4.6,1.2,6.9,6.1,11.4,7.6
		c-1.4-5.9-7.3-9.4-8.2-15.5c5.3,2.2,8.9,6.9,14,9.4c1.9-7.1-4.5-12.2-7.3-18.1c4.3,2.9,8.8,6,11.5,10.5c0.9,1.7,2.7,2.7,4.5,3.4
		c0.4-4.4-1.5-8.3-3.5-12.1c0.4-0.2,1.3-0.8,1.8-1c2.7,2.6,5,5.5,7,8.7c1.9-1,3.7-2,5.6-3c-0.2-1.6-0.3-3.2-0.5-4.8
		c2.2,0.6,4.5,1.3,6.7,2c12.6-7.5,27.6-10.2,42.1-9.6c8.3,1.4,16.6,1.6,25,1.3c3.8-0.1,7-2.7,10.5-4c3.9-1.5,7.7-3.3,11.1-5.7
		c0.1,1.4,0.2,2.8,0.3,4.3C1014.5,342.1,1018.8,343.3,1021.6,340.6 M1027.3,387.8c-0.5,1-0.9,2-1.3,3.1c1,0.3,2.1,0.6,3.1,1
		C1028.5,390.4,1027.9,389.1,1027.3,387.8 M958,423.7c-0.6,4.7,1.5,9.1,2.8,13.5c1.4,5,4.8,9.1,8.8,12.2c0.9,1.2,3.1,1.2,3.6-0.4
		c-0.8-3.7-3.7-6.6-4.6-10.3c-0.4-3.8-0.2-7.8-1.3-11.5c-1.8,0.6-3.7,1.3-5.5,2C961.1,427.1,960.3,424.7,958,423.7 M998.7,425.9
		c0.2,4.5,2.6,8.4,5.2,11.9c2.1-2.5,4-5.2,5.7-8C1006.4,427.7,1002.6,426.4,998.7,425.9 M972.3,427.4c0.2,5.8-0.3,13,4.9,16.9
		c0.2-1.8,0.3-3.5-0.4-5.2c-1.4-3.7-2-7.7-2.2-11.6C974,427.4,972.9,427.4,972.3,427.4 M950.3,431.2c-0.5,3.8,0.5,7.8,2.5,11.1
		c1.5,1.5,3.6,2,5.5,2.8c-0.7-5.3-3-10.3-6.2-14.5C951.6,430.7,950.7,431,950.3,431.2 M941.2,437.7c0,0.8,0,2.5,0,3.4
		c1.6,0.3,3.2,0.5,4.8,0.8C945.8,439.2,944.1,437.1,941.2,437.7z"/>
	<path class="st1" d="M676.1,370.7c-1.7-2.2,0.7-3.8,2.9-3.3c4.1,1.5,7.5,4.4,11.3,6.5c-0.4,1.9-0.8,3.7-1.3,5.6
		C683.5,379.3,679.5,374.6,676.1,370.7L676.1,370.7z"/>
	<path class="st1" d="M667.2,377c1.6-1.2,3.3-3.5,5.6-3c3.8,2.6,7.4,5.8,9.6,9.8c-1.6,0.5-3.3,1.9-5,1
		C673.5,382.9,670.4,379.8,667.2,377L667.2,377z"/>
	<path class="st1" d="M809.8,377.1c0.7-1,1.4-1.9,2.2-2.8c1.9,2,4.1,4.1,4.6,7c0.4,2.4,0.1,4.8,0,7.1c-0.7,0.1-2,0.3-2.6,0.3
		C811.9,385.2,810.1,381.4,809.8,377.1z"/>
	<path class="st1" d="M662,382.6c3.6-0.1,6,2.9,9,4.4c2.1,1.4,5.7,3,4.2,6c-1.3,0.4-2.5,0.2-3.6-0.6
		C667.6,390,664.2,386.7,662,382.6L662,382.6z"/>
	<path class="st1" d="M649.5,382.5c3.6-0.6,6.3,2,8.6,4.4c3.9,4.1,9.4,6.5,12.9,11.1c-1,0.8-2,1.6-3.1,2.4
		c-4.7-1.1-7.5-5.4-11.2-8.1C653.6,389.6,649.1,387.2,649.5,382.5L649.5,382.5z"/>
	<path class="st1" d="M639.3,386.1c1.2-1.1,2.7,0.1,3.8,0.8c3.4,2.6,6.2,5.9,9.9,8.2c3.5,2.7,7.6,4.4,10.9,7.3
		c2.2,1.9-1.2,6.5-3.4,4.3c-3.2-1.9-6.3-3.9-9.5-5.5c-5.1-2.8-9.1-7.1-12.9-11.4C636.8,388.5,637.9,386.6,639.3,386.1L639.3,386.1z"
		/>
	<path class="st3" d="M1027.3,387.8c0.6,1.3,1.2,2.7,1.8,4c-1-0.3-2.1-0.6-3.1-1C1026.4,389.8,1026.9,388.8,1027.3,387.8z"/>
	<path class="st1" d="M720.5,394.5c7.4-1.5,14.9-3.1,22.6-2.7c1.4,0.3,3.4-0.1,4.4,1.3c-0.3,2.1-1,4.2-2.2,6
		c-3.5,1.1-7.2,1-10.7,1.7c-13.7,2.5-26.7,8.2-39,14.7c-4.7,2.5-8.6,6.3-13.3,8.6c-0.2-5.7,3.2-10.6,4.9-15.8
		c1.1-2.7,1.9-6.1,4.6-7.6C700.4,395.8,710.7,395.4,720.5,394.5L720.5,394.5z"/>
	<path class="st4" d="M630.7,393.2c0.7,0.2,1.4,0.4,2.2,0.6c0.6,2.1,1.3,4.2,2,6.2c-0.8,0.2-1.7,0.4-2.5,0.5
		c-0.7-0.8-1.4-1.6-2.1-2.4C630.5,396.6,630.6,394.9,630.7,393.2L630.7,393.2z"/>
	<path class="st1" d="M744.6,411.6c3.7-2.1,8.3-1.9,11.2,1.4c-1.4,1.6-2.7,3.6-4.8,4.4c-2.2,0.2-4.4-0.3-6.4-1.1
		C743.8,414.9,742.9,412.8,744.6,411.6L744.6,411.6z"/>
	<path class="st1" d="M640.6,415.1c0.3-0.4,0.9-1.1,1.2-1.5c5.4,3.2,10.7,8,10.9,14.7c-3.5,1.7-4.9-2.5-6.6-4.6
		C644.5,420.8,641.3,418.5,640.6,415.1z"/>
	<path class="st0" d="M888.9,414.7c4.9,0.6,6.7,5.7,9.2,9.2c2,3.5,5.2,6.2,6.8,9.9c-1.1,0.7-2.8,1.2-3.9,0.2
		C895.1,429.1,890,422.5,888.9,414.7L888.9,414.7z"/>
	<path class="st1" d="M764.2,421.2c0.1-2.4,3.3-2.5,4.6-1.1c1.4,1.2,1.2,3.1,1.1,4.7c-0.5,4.1-1,8.9-5,11.2
		C763.1,431.3,763.2,426.1,764.2,421.2L764.2,421.2z"/>
	<path class="st0" d="M885.1,425.3c1.1-0.3,2.1-0.7,3.2-1c2.5,4.5,6.6,7.6,9.9,11.5c1.4,1.4,1.4,3.4,1.8,5.2
		C892.2,439.8,886.8,432.6,885.1,425.3z"/>
	<path class="st1" d="M958,423.7c2.3,1,3.1,3.4,3.8,5.6c1.8-0.7,3.6-1.4,5.5-2c1.1,3.7,1,7.6,1.3,11.5c0.9,3.7,3.7,6.6,4.6,10.3
		c-0.5,1.5-2.7,1.6-3.6,0.4c-4-3.1-7.4-7.3-8.8-12.2C959.4,432.8,957.4,428.4,958,423.7L958,423.7z"/>
	<path class="st1" d="M998.7,425.9c3.9,0.5,7.6,1.7,11,3.9c-1.7,2.8-3.6,5.5-5.7,8C1001.3,434.3,999,430.4,998.7,425.9z"/>
	<path class="st1" d="M972.3,427.4c0.6,0,1.7,0,2.3,0c0.3,4,0.8,7.9,2.2,11.6c0.7,1.6,0.6,3.5,0.4,5.2
		C972,440.4,972.5,433.2,972.3,427.4z"/>
	<path class="st1" d="M950.3,431.2c0.4-0.2,1.3-0.5,1.8-0.7c3.2,4.2,5.5,9.2,6.2,14.5c-1.9-0.8-4-1.3-5.5-2.8
		C950.8,439,949.8,435,950.3,431.2z"/>
	<path class="st1" d="M686.5,436.4c-1.2-2,1.2-3.4,2.2-4.9c8.5,4.8,17.3,9,26.6,12.2c5.2,2.9,11.2,1.2,16.8,2.5c4,0.6,7.9,2.3,12,2
		c5.9-1.3,10.3-7.2,16.8-6.2c-0.1,1.2-0.1,2.3-0.2,3.5c-9,4.5-17.6,10-26.7,14.2c-6.1-0.5-10.7-5.3-16.2-7.4
		c-3.5-1.4-7.7-0.9-10.7-3.4c-4.3-3.5-9.1-6.5-14.2-8.6C690.6,439.2,687.9,438.6,686.5,436.4z"/>
	<path class="st1" d="M941.2,437.7c2.9-0.5,4.6,1.5,4.8,4.2c-1.6-0.3-3.2-0.5-4.8-0.8C941.2,440.2,941.2,438.5,941.2,437.7z"/>
	<path class="st0" d="M1049.9,449.1c7.2,0.5,14.5-1.2,21.6,0.5c2.1,0.5,4.2,1,6.3,1.5c-0.1,0.6-0.2,1.8-0.3,2.4
		c-3.5,0.2-6.9-0.7-10.3-0.8c-4.9,1.4-8.3,5.4-12.9,7.4c-3.7,1.6-7.6,2.7-11.5,3.6c-4,0.9-8.2,0.7-12.1,2.2l0.5,1.8
		c9.8,2,18.3-5,27.8-5.9c-1.6,3.5-5,5.1-8.2,6.9c-2.3,1.1-2,4-2.4,6.1c-5.4-0.4-10.8-1.5-15.9-3.5c-5.7-2.5-12.2-1.9-18.1-3.7
		c0-0.6-0.1-1.9-0.2-2.6c3.6,0,7.6,1.1,10.7-1.3c5.4-3.9,12.3-3.4,18.4-5.3c5-1.5,11.5-0.8,14.8-5.5c-2.5-1.6-5.6-0.2-8.3-0.1
		C1049.8,451.7,1049.8,450.4,1049.9,449.1z"/>
	<path class="st1" d="M694.2,454c1.2-0.9,2.1-2.8,3.7-2.9c3.7,3,5.8,7.7,10,10.1c3.9,3,9,6.1,10.3,11.1c-4.1-0.5-6.6-4.4-9.6-6.8
		C704.4,460.8,697.9,459,694.2,454L694.2,454z"/>
	<path class="st1" d="M708,455.2c3.1,0.4,6.2,1.1,9.2,1.6c2.3,2.7,4.8,5.4,6.8,8.4c-4.1,0-6.7-3.3-9.8-5.4
		C712.1,458.3,710,456.8,708,455.2z"/>
	<path class="st1" d="M676.3,460c1.1-0.7,2.3-1.1,3.7-1.2c2.6,1.5,3.9,4.4,5.8,6.6c4.5,5.5,8.5,11.4,13.7,16.2
		c8.4,9.2,16.9,18.5,26.5,26.5c3.3,3.1,5.6,7,8.9,10c5.2,4.7,8.4,10.9,12.9,16.1c4.9,5.5,8.8,11.9,13.1,17.9c1.1,1.4,1.3,3.3,1.5,5
		c-5.7-2.7-8.2-8.9-12.2-13.4c-5-7.2-11.8-13-17.2-19.8c-5.4-7.6-13-13.1-18.6-20.4c-8.6-9.4-16.7-19.2-25.5-28.4
		C684.7,470.1,679,466,676.3,460z"/>
	<path class="st1" d="M689.9,458.9c5.7-0.4,8.9,5.3,13,8.3c7.2,7.5,15.6,14.4,20.3,23.9c-4.8-2.5-7.2-7.5-11-11.2
		c-5.7-6.1-12.4-11-19.2-15.8C691.4,462.7,688.6,461.4,689.9,458.9L689.9,458.9z"/>
	<path class="st0" d="M933.9,460.5c5.6-0.2,11.5-0.4,16.8,1.9c6.8,2.8,13.9,5,21.3,5c6,0,12,0.6,18,0c4.1-0.9,8.1-2.1,12.4-1.7
		c0.1,0.4,0.3,1.3,0.5,1.8c-2.2,0.3-4.5,0.5-6.3,1.8c2.1,2.3,5.7,1.7,8.5,2.3c-5.3,1.6-10.6,3.6-16.1,4.6c-3.6,0.7-7.3-1.2-10.8,0.1
		c4.9,3.1,11.3,2.8,16.8,1.4c5.7-1.5,11.5-3.3,17.5-3.1c-3.3,4.8-11.4,2.7-13.8,8.3c3.3-0.4,6.6-0.9,10-0.9
		c-4.2,4.4-10.9,3.9-16.4,3.3c-6.7-0.7-12.5-4.6-19.1-5.9c-7.5-1.6-14.7-4-22.1-5.8c1.7,1.2,3.4,2.3,5,3.5c-0.6,1.2-1.2,2.5-1.8,3.7
		c3.1,1,6.1,2,9.2,3.1c-1.5,0.9-3,1.8-4.5,2.7c2.8,5.6,10,3.4,14.9,5.1c-1.8,2.1-5.8,3.5-5.8,6.5c4.9-0.7,9.9-3.5,14.9-1.5
		c-2.3,1.8-4.7,3.4-6.8,5.4c0.3,0.3,0.8,0.8,1.1,1.1c5.5-1.1,10.9-4.7,16.6-2.5c-2.5,2.2-5.7,4-6.9,7.3c5.7-0.5,10.9-3.1,16.5-3.7
		c-1.1,2.4-2.5,4.7-4,6.9c4.9-1.5,9.6-3.8,14.8-4.4c-1.5,2-3,3.9-4.5,5.8c1.3,0.2,2.8,0.8,4,0c3.7-1.8,6.7-4.9,10.4-6.7
		c-0.4,2.7-1.1,5.3-1.9,7.9c3.3-1.3,6.7-2.4,10.3-2.9c-0.9,5.1-6.3,6.9-10.4,8.9c-6.5,3.1-13.9,2.7-21,3.1c-6.6,0.6-12.9-2.1-19.1-4
		c-5.8-2.5-11.2-5.9-16.2-9.6c-5.1-4.6-11.1-8.3-14.8-14.2c-4.9-6.4-7.6-14-10.5-21.4C938.6,469.1,935.3,465.2,933.9,460.5
		L933.9,460.5z"/>
	<path class="st1" d="M667.4,460.9c1.9,0.4,3.8,1,5,2.7c6.4,8.2,14.2,15.1,21.4,22.6c5.4,5.8,8.8,13.1,14.2,18.8
		c3.7,4,7.9,7.5,11.1,11.9c3.4,4.6,7.7,8.4,11.4,12.6c7.8,8.3,15.3,16.7,22.6,25.3c2.8,3.2,6.4,5.7,8.5,9.4c0,1.9,0.1,5.2-2.6,5.2
		c-5.2-3.7-8.4-9.3-12.8-13.7c-6-6-11.3-12.7-17.1-18.9c-6.8-6.9-13-14.4-19-22c-3.7-6.4-9.3-11.4-13.7-17.3c-3.6-4-7.2-8.1-10.9-12
		c-7.1-6.6-12.5-14.7-19.3-21.7C666.6,462.9,667,461.9,667.4,460.9L667.4,460.9z"/>
	<path class="st0" d="M1054.8,470.8c3.6-4.7,9.9-6.1,15.3-7.6C1066.4,467.8,1060.5,470.1,1054.8,470.8z"/>
	<path class="st1" d="M696.6,471.8c1.8,0.3,3.9,0.2,5.5,1c2.7,2.4,4.5,5.5,6.9,8.2c5.3,6.7,12.1,12,17.1,18.9
		c-5.2-2.1-8.8-6.6-12.9-10.1c-4.6-4.4-9.2-8.8-14-12.9C697.5,475.6,697,473.7,696.6,471.8L696.6,471.8z"/>
	<path class="st1" d="M664.3,475.9l0.7-0.5c3,2.5,5.2,5.8,7.7,8.9c4.7,6,10.9,10.6,15.4,16.7c7.3,9.6,16.8,17.3,24.1,26.8
		c8.1,10.2,17.7,19.1,25.7,29.4c4.9,5.1,9.2,10.8,14.7,15.2c2.2,2,4.9,3.8,5.9,6.7c-1.5,2.6-4.4,0.7-6-0.7
		c-4.8-4.5-9.9-8.8-13.8-14.2c-8.8-11.5-19.8-20.8-29.3-31.7c-10.1-10.9-21.6-20.5-30.4-32.6c-4.9-6.4-11.3-11.6-15.7-18.4
		C662.2,479.8,662.7,477.2,664.3,475.9L664.3,475.9z"/>
	<path class="st1" d="M736.7,477.1c4.4,3.3,8.8,6.6,13,10.2c1.1,1.3,3.3,2.8,2.3,4.8c-2.8,1.3-4.5-2.1-6.3-3.7
		C742.8,484.5,738.1,481.9,736.7,477.1z"/>
	<path class="st1" d="M721,480.9c1.9-1,3.7-2.5,6-2.2c3.9,2.9,7.1,6.6,11.2,9.2c3.1,1.6,4.6,7,1.9,9.4c-3.5-2.5-6.4-5.9-9.8-8.5
		C727.1,486.2,723.8,483.8,721,480.9L721,480.9z"/>
	<path class="st0" d="M1156.4,488.8c2.3,4.8,3.7,10,5.6,15v71.8c-0.3-4.1-1.1-8.2-2.3-12.2c-4.4,2.2-4.7,7.6-4,11.8
		c1.5,8.2,4.7,16.1,6.2,24.3v8.2c-3.4-6.2-5.4-12.9-8.5-19.2c-2.1-4.5-2-9.8-4.5-14.2c-1.8-0.3-2.4,2.2-2.2,3.5
		c0.6,6.9,1.1,13.9,3.7,20.5c2,6,4.5,11.8,6.2,18c1.5,5.5,4.2,10.6,4.7,16.4c-6.2-2.8-5.5-10.9-9.3-15.8c-0.9-1.8-3-1.5-4.6-1.7
		c3.5,13.7,10.4,26.1,14.6,39.5v4.9c-2.9-2.7-5.8-5.4-8.2-8.6c-3.2-4.3-4.8-9.5-6.5-14.5c-0.6-0.1-1.9-0.3-2.6-0.5
		c2.3,15,10.4,28.2,13.9,42.9c-5.6-8.6-11.2-17.2-14.8-26.8c-0.8-2-1.8-3.9-2.9-5.7c-1.1,13.8,7.6,26,6.6,39.7
		c-1.9-4.6-2.7-9.9-6-13.8c-2.5-3-4.4-6.3-6.3-9.7c-2.7-4.8-6.7-9-7.7-14.6c-1-5.3-2.9-10.4-5.3-15.2c-1.6-3.5-4.2-7-3.2-11.1
		c3.1,4.8,4.8,10.4,8.3,14.8c2.8,3.5,4.4,7.6,6,11.7c1.6-2,4.5-4.1,3.2-7c-2-4.9-4.4-9.7-6.2-14.6c-1.8-4.7-5.1-9.7-2.8-14.8
		c3.6,6.3,6.4,13.1,10.7,19c0.9-1.9,2.4-3.8,2.3-6c-0.2-5.4-2.3-10.5-4-15.6c-2.2-6.4-6.5-12-7-19c4.3,4.7,6.9,10.8,11.8,14.9
		c0.4-4.5,0.7-9.2-0.3-13.6c-1.3-5.3-3.7-10.3-5.1-15.7c-1.4-5.5-2.4-11-3.5-16.6c-0.6-0.1-1.8-0.2-2.5-0.3
		c-2.2,5.9,0,12.9-4.1,18.1c-1.8-6.6-1.7-13.5-2.5-20.2c-0.2-9.1-1-18.4,1.1-27.3c0.8,3.6,1.4,7.3,1.9,11.1c0.5-0.1,1.6-0.4,2.1-0.5
		c0.7-4.6,0.9-9.2,1.2-13.8c5.2,7.4,3.4,16.8,6,25c3.8-9.3,0-19.5,2.4-29c3.5,6.9,2.5,14.8,2.8,22.3c0.7-0.1,2.1-0.2,2.8-0.3
		c0.4-10.1-0.1-20.3,1.2-30.3c3.6,5.9,2.6,13.1,4.9,19.4c0.4-0.2,1.3-0.7,1.7-0.9c1.9-7.8-1.4-16,1.4-23.7c2.4,4.3,2.1,9.6,4.9,13.7
		c2.5-0.8,1.8-3.7,2.1-5.7C1160.8,507.4,1156.1,498.4,1156.4,488.8L1156.4,488.8z"/>
	<path class="st1" d="M660.7,497.2c-2.3-2-1.2-7.1,2.3-6.6c7.3,5.6,11.2,14.3,17.9,20.6c3.9,3.8,8,7.4,11.3,11.7
		c2.4,3.2,4.9,6.4,7.9,9.1c5.3,4.7,9.5,10.6,15.3,14.7c6.1,5.9,12.7,11.5,17.2,18.8c1.6,2.6,3.8,4.8,5.7,7.2c2.2,2.5,1.7,6.5,4.1,9
		c3.5,3.8,7.6,7.1,10.7,11.3c-7.1-2.2-11.3-8.7-16.7-13.2c-7-6-12.8-13.2-19.3-19.7c-4-4.3-8.4-8.2-12.2-12.8
		c-4.5-5.5-9.7-10.3-14.9-15.1c-5.3-4.9-8.4-11.5-13.3-16.7C671,509.6,666.1,503.2,660.7,497.2L660.7,497.2z"/>
	<path class="st1" d="M777.8,501.3c2-1.3,4-2.7,6.4-3.3c0.5,2.5-0.6,5-2.4,6.7C779.6,505,778.8,502.7,777.8,501.3L777.8,501.3z"/>
	<path class="st1" d="M774.1,506.3c1.2-0.6,2.5-1.1,3.8-1.5c1,1.9,1.8,4,2,6.2C777.1,511,774.2,509.3,774.1,506.3L774.1,506.3z"/>
	<path class="st1" d="M656.2,506.7c1.2-0.2,2.4-0.4,3.6-0.4c3.1,3.3,5.1,7.4,8.5,10.4c6.8,6,11.1,14.1,17.5,20.4
		c3.1,3.2,6,6.7,9.4,9.6c2.7,2.3,5.4,4.6,7.5,7.6c4.9,7,12.2,11.9,17.3,18.7c6.3,8.9,15.4,15.4,22.3,23.8c-1.7,0.5-3.4,1.6-5.2,1.4
		c-3.7-2-6-5.5-9-8.2c-10.6-10.1-21.4-20-30.8-31.2c-4.3-6.6-10.5-11.4-15.9-17c-7.3-10-15.9-19-22.7-29.4
		C657.6,510.6,656.9,508.6,656.2,506.7L656.2,506.7z"/>
	<path class="st1" d="M768.2,512.8c0.5-0.5,1.5-1.5,2-2c3.1,0.9,5.4,3.8,5.6,7C772.5,517.7,770.4,515,768.2,512.8z"/>
	<path class="st1" d="M739.2,515.2c1.9-0.5,3.2,1,4.5,2.1c8.3,7.8,14.4,17.6,21.4,26.6c1.2,1.2,0.6,2.9-0.1,4.2
		c-5.2-4.2-8.5-10.3-12.5-15.6c-3.5-6-9.7-9.9-13.6-15.6C739,516.5,739.1,515.6,739.2,515.2L739.2,515.2z"/>
	<path class="st1" d="M761.2,516.2c1.5,0.2,3.4-0.2,4.5,1.1c2.3,2.4,4.5,5,5.9,8c0.9,2-0.7,3.5-2,4.7
		C766.5,525.7,761.2,522,761.2,516.2L761.2,516.2z"/>
	<path class="st1" d="M752.7,521c0.5-1.5,2.4-3.2,3.5-1.3c3.9,4.2,7.4,8.6,11,13.1c1.8,1.8,1,4.3,0.7,6.4c-4.1-2.3-6.2-6.6-9.1-10.1
		C756.8,526.4,754.1,524.2,752.7,521z"/>
	<path class="st1" d="M662.8,534c6.4,2.5,10.5,8.3,15.3,12.9c5.4,5.1,8.9,11.7,14,17c4.2,4.5,9,8.4,12.7,13.3
		c3.9,5.3,9.2,9.4,12.4,15.2c-5.1-1-8.6-4.9-12.4-8.2c-5.4-4.5-10.8-9.3-14.8-15.2c-4.2-6.1-10.1-10.7-14.3-16.8
		C671.5,546.1,665.2,541.2,662.8,534L662.8,534z"/>
	<path class="st1" d="M649.8,534.9c4.9-1,6.3,5.2,9.5,7.7c6.6,4.8,12.5,11.1,15.5,18.7c-4.9-2.7-9.1-6.5-13.9-9.2
		c-3.9-2.2-5.6-6.6-8-10.1C651.8,539.7,649.9,537.6,649.8,534.9L649.8,534.9z"/>
	<path class="st0" d="M1115.4,536.2c0.5,0.1,1.5,0.3,1.9,0.5c2.1,6.6,1,13.5,1.8,20.3c0.1,5.5,1.6,11,0.7,16.5
		c-0.8,4.4-0.3,9.5-3.5,13c-0.9-5.1-0.6-10.4-1.9-15.5c-0.2-1.5-1.5-2.4-2.4-3.3c-1.1,7.3,1.2,15.2-2.5,21.9
		c-0.3,0.2-1.1,0.6-1.4,0.8c-2.1-1.5-2-4.5-3.2-6.6c-1.5,3.2-3,6.6-3.7,10.1c1.4,5.2,3.6,10.1,6,14.8c2.8,5.5,4,11.7,7,17.1
		c3.7,6.9,4.8,14.7,5.4,22.3c-4.4-5.8-7.6-12.6-10.3-19.3c-2.4-7.9-3.9-16.1-7.6-23.5c-2.4-4.5-3.6-9.8-7.3-13.5
		c-0.7,3.3-1.2,6.6-1.8,9.9c-1.7-0.1-3.5-0.2-5.2-0.3c-0.4,2.7-0.7,5.4-0.9,8.1c-1,0.4-2,0.7-3,1.1c-0.3,3.6-0.7,7.4,1.3,10.6
		c4.8,8.6,10.5,16.9,13.3,26.5c2.2,8.3,5.4,16.3,7.4,24.7c-4.6-2.2-6.1-7.4-8.1-11.6c-2.1-5.1-5.5-9.6-7.1-14.9
		c-2.3-7.7-5.2-15.2-8.8-22.3l-1.4-0.9c-1.1,3.1-1.3,6.5-1.8,9.7c-4-3.5-1.6-9.6-4.7-13.6c-0.4,4.3-1.3,9,0.8,13
		c2.3,4.2,4.5,8.5,7.9,12c8.8,8.6,12.6,20.8,14.6,32.6c-2.4-1.1-4.7-2.8-5.9-5.2c-4.2-7.8-9.8-14.8-12.6-23.3
		c-2.2-6.7-6-12.7-9.1-18.9c-1.9-4.7-2.4-9.9-4.6-14.5c-1.7-4.4-5.7-7-9.3-9.7c-4.1-2.9-7.9-6.1-11.1-9.9c-2.4-3-3.5-7-6.3-9.7
		c-2.2-2.2-4.4-4.3-6-7c4.8,1.3,7.4,5.9,11.1,8.8c5.8,5,10.6,10.8,15.8,16.3c-1.6-7-6.9-12.9-6.7-20.4c3.1,1.9,3.1,6.1,5.7,8.3
		c2,1.6,4.3-0.5,6.3-1c-1.9-6.7-5.6-12.9-6.2-20c4.1,4,5.9,9.5,8.2,14.5c1.7,4,4.1,7.6,5.4,11.7c1.2,3.2,1.4,6.9,4.3,9.1
		c1.3-9.2-0.6-18.5-0.6-27.7c2.3,2.3,2.1,5.8,3.8,8.4c2.2,1.5,2.9-1.4,3.1-3.1c0.3-4.1,0.1-8.2,0.4-12.2c2.5,3.1,1.8,7.8,4.4,10.7
		l1.1-0.1c0.6-6.8-0.5-13.8,1.7-20.5c2,5.3,0.7,12,5.3,16.1c2.4-4,1.6-8.6,2.1-13c0.3-3.8,1.3-7.5,2.5-11c2.7,5.8,2.8,12.2,5.3,18.1
		c3.5-8.5,0.2-17.7,1.5-26.5c0.6-0.6,1.3-1.2,2-1.8c0.2,7.1,0.8,14.2,1.7,21.2c-0.1,2.3,3.6,1.8,3.6-0.3
		C1115.7,554.7,1113.2,545.3,1115.4,536.2L1115.4,536.2z"/>
	<path class="st1" d="M1155.8,575.3c-0.8-4.3-0.4-9.7,4-11.8c1.2,4,1.9,8,2.3,12.2v24C1160.4,591.4,1157.3,583.6,1155.8,575.3z"/>
	<path class="st0" d="M893.9,574.9c2-3.1,5.7-4.3,9.2-4.8c-1.8,3.5-4,7.6-8.1,8.5C892.8,579.1,892.7,576.1,893.9,574.9z"/>
	<path class="st1" d="M1146.8,578c-0.2-1.4,0.3-3.9,2.2-3.5c2.5,4.4,2.4,9.7,4.5,14.2c3.1,6.3,5.1,13,8.5,19.2v47.1
		c-4.2-13.4-11.1-25.9-14.6-39.5c1.6,0.2,3.7-0.1,4.6,1.7c3.8,4.8,3.2,12.9,9.3,15.8c-0.4-5.8-3.2-10.9-4.7-16.4
		c-1.7-6.1-4.2-12-6.2-18C1147.9,591.9,1147.4,584.9,1146.8,578L1146.8,578z"/>
	<path class="st1" d="M701.2,594.8c-2-1.6-5.3-4-2.3-6.3c2.7-0.4,4.2,2.1,5.8,3.8c2.7,3.4,5.8,6.4,8.3,10
		C708.4,601.1,705,597.6,701.2,594.8L701.2,594.8z"/>
	<path class="st1" d="M717.5,591.5c4.6,1.2,7.6,5.1,11.2,7.8c1.7,1.2,2.8,2.8,3.6,4.7c-2.3-0.2-5.2,0.7-6.8-1.5
		C722.6,599,719.7,595.5,717.5,591.5L717.5,591.5z"/>
	<path class="st0" d="M1089.8,608.7c2.8,1.7,4.9,4.3,6.4,7.2c4.6,8.3,9.8,16.5,12.2,25.8c1.7,6.4,3.6,12.9,3.4,19.6
		c-3.6-4.5-4.3-10.3-6.8-15.3c-4.3-8.2-7.4-16.9-11.9-25C1090.9,617.2,1089.5,613,1089.8,608.7z"/>
	<path class="st1" d="M766.4,622.6c-2.4-2.9-6.3-6.5-3.8-10.5c2.5,4.3,4.6,8.8,7.6,12.8c2.3,2.9,6.5,3.8,8,7.3
		c1.5,1.4-2.1,2.9-2.8,1.6C772,630.4,769.7,626.1,766.4,622.6L766.4,622.6z"/>
	<path class="st1" d="M755.9,616.3c1.3,0,2.6,0,3.8,0c2.2,4.9,4.5,9.8,7.8,14.1c1.9,2.9,4.5,5.3,6,8.5c-0.8,1-1.5,2-2.4,3
		c-5.3-6.1-10.5-12.5-14.3-19.7C755.7,620.4,755.8,618.3,755.9,616.3L755.9,616.3z"/>
	<path class="st1" d="M750.5,624c0.5-1.5,1.5-3.2,3.4-2.3c3.1,3.1,4.3,7.5,6.4,11.2c2.7,5.2,6.8,9.4,9.5,14.5c1.1,1.6-0.5,3-1.6,3.9
		c-5.3-4.9-8.4-11.4-12-17.5C754.4,630.5,752.1,627.4,750.5,624L750.5,624z"/>
	<path class="st1" d="M744.3,628.4c0.7-1,1.6-1.8,2.4-2.7c4.8,8,8,16.8,12.8,24.7c3,5.2,9,9.7,8.1,16.4c-2,1.4-3.1-1.1-4.2-2.4
		c-5.9-9-10.1-19-16-28C746,634,743.4,631.5,744.3,628.4z"/>
	<path class="st1" d="M738.7,639.9c-0.9-2.1,1.2-3.5,2.3-4.9c4,5.3,6.7,11.4,9.9,17.2c4.2,5.9,8.1,12.1,11.4,18.6
		c1,2,2.1,4.6-0.2,6.2c-1.2,1.8-3.7,1.7-4.7-0.3c-4.7-7.6-8.8-15.5-12.4-23.6C743,648.6,740.2,644.5,738.7,639.9L738.7,639.9z"/>
	<path class="st1" d="M731.4,648.4c0.3-2,3.3-3.2,4.3-1.1c2.4,4.1,3.7,8.7,6.4,12.7c2.2,3.2,4,6.7,6,10c2.2,3.9,6.1,6.8,7,11.4
		c-2.4,0.7-4.7,1.4-7.1,2.1c-5.6-8.8-10.9-17.7-15.5-27C731.2,654,730.8,651.1,731.4,648.4L731.4,648.4z"/>
	<path class="st1" d="M726.5,661.4c0.5-1.9,3-0.9,3.4,0.5c3.1,8.5,9.1,15.3,13.4,23.2c1.2,3.3-2,5-4.8,4.8
		c-3.7-5.6-6.1-11.9-9.8-17.6C726.4,669.2,725.5,665.1,726.5,661.4z"/>
	<path class="st0" d="M1126.8,662.5c3.7,2,4.3,6.4,5.9,9.8c1.5,3.6,4.2,6.6,5.5,10.3c4.1,12,6.1,24.5,9.2,36.7
		c-4.3-5-4.2-12.3-8.7-17.1c-2.4-2.7-3.9-6-6.5-8.4c2.2,8.2,6.6,15.7,9,23.8c1.2,4.1,3,8,3.5,12.3c0.3,3.3,0.8,6.7,2,9.8
		c2.1-0.9,4.6-3.3,6.9-1.4c1.8,4.7,1.7,9.9,1.8,14.8c-1.7,0.1-3.3,0.1-5,0.2c0,3.2,0,6.4-0.2,9.7c-1.9,0-4.8-2-6,0.2
		c1.1,5.6,3.6,11,4.8,16.6c-1.9-0.9-3.8-1.9-5.8-2.8c-0.9,2.7-2.1,5.2-2.8,8c0.8,3.2,2.2,6.1,3.1,9.2c-3.2-0.2-6.4-0.6-9.6-0.2
		c-3.9-4-6.6-8.9-9.4-13.7c-1.2-2.8-4.5-2.4-6.9-3.3c-2.4-4.1-3-8.9-4.3-13.4c-2.2-7.7-5.3-15.2-8.4-22.5
		c-2.6-8.3-2.6-17.1-4.7-25.5c-0.9-3.3-1.8-6.6-2-10c3.4,2.1,5,6,6.5,9.5c2.6,7.1,4.9,14.2,6.4,21.6c3.2,9.8,5.9,19.8,8.2,29.9
		c0.2,2.5,3,2.7,4.9,3.4c0.2-6.2-2.1-12-3.4-18c-2-9-5.3-17.8-6.1-27c-0.7-6.2-2.4-12.2-2.2-18.5c1.5,1.6,2.4,3.7,3,5.9
		c1.8,6,4,11.8,6.3,17.6c3.8,9.6,2.9,20.1,4.8,30.1c1.1,5.7,6.7,8.5,11.4,11c-0.3-3-1.1-6-2.4-8.8c-2.9-6-3-12.8-4.9-19
		c-1.8-7-4.7-13.6-6.6-20.5c-1.6-5.5-1.6-11.4-3-17c-1.5-6-2.7-12.1-2.6-18.3c5.5,6.2,8.4,14.1,10.8,21.9c0.8,2.2-1.4,4.1-1.3,6.3
		c0.4,6.2,3.1,11.9,3.8,18.1c0.8,6,2.5,11.7,3.7,17.6c0.2,2.2,2,3.6,3.8,4.6c-0.2-3.2-0.8-6.5-0.6-9.7c1.4-0.6,2.9-1,4.3-1.4
		c-0.5-6.2-3.8-11.7-5.3-17.7c-2-7.7-5.3-14.9-6.8-22.7c-2.3-8.8-4.8-18-3.1-27.1C1128.7,672.6,1125.8,667.6,1126.8,662.5
		 M1128.2,773.1c-0.1,2.8,2.3,4.7,3.8,6.8c-0.3-2.2-0.4-4.5-1.3-6.5C1130.3,772.1,1127.9,770.8,1128.2,773.1L1128.2,773.1z"/>
	<path class="st1" d="M721,676.1c0.3-2.1,2.6-2.5,4.1-3.4c2,5.3,3.7,10.7,6.4,15.7c1.7,3.8,3.9,9,0.7,12.7c-1.8,2.3-5.5,0.6-6.2-1.8
		c-1.8-4.3-3-8.8-5.2-13C718.8,683.2,720.1,679.4,721,676.1L721,676.1z"/>
	<path class="st1" d="M1067.9,694.1c-1.6-1.8-1.8-5.1,0.1-6.7c3.4,2.5,5.2,6.6,7.4,10.2c3.2,6.7,8.1,12.4,10.6,19.4
		c2.4,6.9,4.6,14,5.7,21.3c1.6,11,7.4,20.9,9.2,31.9c0.7,4.8,2.9,9.2,2.8,14.1c-3.2-3.2-3.1-8.2-4.7-12.2c-2.8-7.4-4.8-15-7.9-22.2
		c-2.3-5.2-1.7-11-3.6-16.3c-3.1-9.1-5.8-18.6-11-26.8C1073.8,702.3,1071,698.1,1067.9,694.1L1067.9,694.1z"/>
	<path class="st1" d="M718.3,697.1l1.7-0.5c4.2,3.7,5.3,9.5,8.8,13.7c-1.6,2.8-4,5-6.8,6.5C717,711.8,714.3,703.4,718.3,697.1
		L718.3,697.1z"/>
	<path class="st1" d="M1063.9,702.5c6.5,3.2,7.7,11.1,10.6,17c4.3,7.8,8.6,15.8,11.8,24.1c1.2,8.1-0.2,16.7,2.5,24.7
		c1.4,3.5,4,6.3,5.3,9.9c0.8,2.8,0.2,5.8,0,8.7c-0.7,0-2.2-0.1-2.9-0.1c-1.4-6.2-3.2-12.3-5.9-18c-3.2-6.8-2.4-14.6-5.6-21.4
		c-2.5-7.2-6.9-13.5-9.5-20.6C1067.3,718.9,1061.7,711.3,1063.9,702.5z"/>
	<path class="st1" d="M1063.1,729.9c-0.4-1.3-0.1-2.5,0.9-3.5c2.6,2.8,3.8,6.6,5.8,9.9c3.5,6.7,8.1,13.1,9.3,20.7
		c0.8,4.8,1.7,9.6,2.6,14.4c1.2,6.9,6.6,12.5,6.5,19.7c-2.4-0.8-3.3-3.4-4.7-5.3c-0.4,4.5,0.5,9.6-2.2,13.6c-2.1-3.4-3.3-7.3-3-11.4
		c0.3-6.2-0.6-12.3-2.2-18.2c-2-7.5-2.8-15.4-6.8-22.2C1066.1,742.2,1064.3,736.1,1063.1,729.9L1063.1,729.9z"/>
	<path class="st1" d="M759.1,773.3c1.3-1.7,3.3-4.7,5.8-3.3c1.2,3.3-2,5.7-3.8,7.9C759.9,776.8,757.6,775.1,759.1,773.3L759.1,773.3
		z"/>
	<path class="st3" d="M1128.2,773.1c-0.2-2.3,2.1-1,2.5,0.3c0.9,2.1,1,4.3,1.3,6.5C1130.5,777.9,1128.1,775.9,1128.2,773.1
		L1128.2,773.1z"/>
	<path class="st1" d="M765,781.8c1-2.7,1.7-6.7,5.2-6.9c0.1,2.7-1.1,5.2-2,7.6C767.3,782.3,765.8,782,765,781.8z"/>
	<path class="st3" d="M685.4,817.8c-0.3-5.5,1.1-10.8,2.3-16.1c-0.1,7.5-1.9,15.5,2.1,22.5C688.2,822.2,685.5,820.6,685.4,817.8z"/>
	<path class="st0" d="M1114,806c5.1,4.4,7.5,11,12.6,15.3c4.9,5.4,11.7,9.2,15.5,15.6c-4.1-1.7-8-4-11.8-6.3
		c-3.9-2.3-6.3-6.4-9.1-9.9C1117.8,816.4,1115.4,811.4,1114,806L1114,806z"/>
	<path class="st1" d="M805.3,809.2c1.9-1.5,4-2.3,6.4-2.8c-1.1,4.2-4.9,6.5-7.5,9.6c-3.4,4.1-5.6,9-9.8,12.4c-2.2,2.8-7.4-1.4-5-4.1
		C793.4,818.3,799.4,813.5,805.3,809.2L805.3,809.2z"/>
	<path class="st1" d="M779.5,817.5c5-2.8,10.5-4.7,15.6-7.4c-0.4,4.3-3.8,7.3-6.6,10.4c-1.8,1.6-3.8,3.7-6.4,3.7
		C780.4,822.6,777.3,820,779.5,817.5L779.5,817.5z"/>
	<path class="st1" d="M1066.2,809.8c1.7-0.1,3.3-0.3,5-0.4c2.9,7.2,4.8,14.9,6.1,22.6c0,2,0.9,6-2.4,5.4c-3.2-4-3.2-9.5-4.1-14.3
		C1070.4,818.3,1067.8,814.2,1066.2,809.8L1066.2,809.8z"/>
	<path class="st0" d="M1111.1,814.9c5.6,5.1,10.3,11,15,17c3.6,5.3,8,10.5,8.8,17.1c-8.7-4.7-14-13.2-20.2-20.6
		C1112.1,824.4,1111.7,819.5,1111.1,814.9L1111.1,814.9z"/>
	<path class="st1" d="M1131,863c13.3-13,22.3-29.5,31-45.8v179.8c-3.2,4.2-7.5,7.2-10.8,11.2c-5.2,6.5-9.8,13.6-14.9,20.2
		c-3.8,4.7-7.2,9.6-10.2,14.9c-4.6,8-11.1,14.6-14.9,23.1c-4.7,8.4-8.9,17.3-15.2,24.7c-6,7.3-7.7,17.3-14.6,24
		c-3.8-3.9-7.7-7.9-11.9-11.3c-4.9-3.8-9.2-8.5-14.7-11.3c-6.1-3.1-11.5-7.4-17.9-9.9c-5-2-9.2-5.6-13.8-8.2
		c-4.3-2.5-9.4-3.1-13.8-5.3c-13.2-7-28.6-7.5-43.1-9.6c-11.2-1-22.4-2.9-33.6-1.4c-3.8,0.8-7.3,2.5-11.1,3.5
		c-7,2.3-14.6,0.7-21.6,3.2c-7.8,2.8-16.2,2.8-24.1,5.1c-6.7,1.8-13.6,2.6-20.2,4.8c-7.3,2.5-14.9,4.1-22.5,5.7
		c-12.8,2.6-24.7,8.3-37.2,11.7c-0.3-5.6-0.2-11.3-2-16.6c-2.4-6.9-3.2-14.1-4.4-21.2c-1.1-8-2.7-15.9-2.9-24
		c-0.3-10.1-2.1-20.1-3.5-30.2c-0.8-10.2-1-20.5-3.5-30.5c-2.2-8.8-3-18-4.2-27c-0.7-5.4-2.1-10.7-2.5-16.2c2,0.8,4.1,1.8,5.4,3.7
		c3.3,4.7,7,9,11.2,13c0.3-2.1,0.2-4.4,1.1-6.3c1.1-1,2.3-1.8,3.5-2.6c1,2,1.9,4.2,3.2,6.1c2.1,2.6,5.7,3.5,7.3,6.6
		c1.6,3.1,2.8,6.4,4.2,9.5c1-4,1.2-8.2,1.3-12.3c1.4,0.4,2.8,0.8,4.1,1.2c0.3,6.7-2.3,14.1,1.8,20.1c2.1,3.7,3.1,7.8,4.1,11.9
		c0.3,0.2,1,0.5,1.4,0.7c0.7-3,1.5-5.9,2.6-8.7c3.3,4.9,2.2,11.1,3.7,16.6c1.5-0.8,3-1.6,4.5-2.4c1.7,2.2,3.3,4.5,4.9,6.9
		c1.1-1.3,2.2-2.5,3.3-3.7c3.5,4.9,6.7,9.9,10.5,14.6c1.6-1,3.2-2,4.9-3c2.2,3.4,4.5,6.8,6.6,10.3c1.4,0,2.8,0,4.2,0.1
		c0.8,1.7,1.7,3.5,2.5,5.2c1.3-0.6,2.6-1.2,4-1.8c5.3,3.5,10.4,7.2,15.8,10.5c5.2,3.3,11.7,3.1,17.2,5.7c6.5,3.2,13.3,5.8,19.5,9.5
		c3.1,1.8,6.4,2.9,9.7,4.3c1.4,0.6,3.2,1.3,3.2,3.2c-0.3,2.9-2.1,5.4-3.2,8.1c4.4-2.4,8.1-6,12.5-8.5c3.7-2.1,7-5,10-8
		c5.1-5.1,11.8-8.1,17.1-12.9c4.9-4.4,10-8.6,14.6-13.4c6.6-6.8,14.6-12.1,21.7-18.4c10.8-10.8,21.9-21.4,33-32
		c6.9-6.7,14.8-12.8,19.4-21.5c3.1-5.7,8.2-9.9,11.5-15.5c3.4-5.5,8.2-9.8,12.5-14.5c3.2-3.6,8-5.2,10.9-9.1
		c4.6-6.1,11.1-10.2,16-16C1120.1,876.8,1125,869.4,1131,863L1131,863z"/>
	<path class="st3" d="M1016.2,834.2c0.5,0.1,1.6,0.4,2.1,0.6c0.1,0.5,0.4,1.5,0.5,2c-0.6,0-1.8,0-2.5,0
		C1016.3,836,1016.2,834.8,1016.2,834.2z"/>
	<path class="st1" d="M1106.3,840.1c2.8-1.3,4.6,1.6,6.1,3.5c2.7,3.8,6.2,6.9,8.8,10.7c-5.1-2-10.2-4.5-14.2-8.4
		C1105.5,844.5,1104.3,841.7,1106.3,840.1L1106.3,840.1z"/>
	<path class="st1" d="M1103.8,850.7c3.8-0.6,6.1,2.7,8.8,4.7c3.2,2.7,7.3,3.7,11.1,5.3c-0.7,1.4-1.5,2.8-2.2,4.3
		c-6.3-1.7-11.7-5.7-16.2-10.2C1104.3,853.7,1104.2,852,1103.8,850.7L1103.8,850.7z"/>
	<path class="st1" d="M1100.9,863.7c5,0.4,9.3,3.3,12.2,7.3c-1.3,0.6-2.4,1.5-3.8,1.7C1106.1,870.2,1103.5,866.9,1100.9,863.7z"/>
	<path class="st1" d="M1095.2,872.3c1.1-1.5,2.9,0.1,4.2,0.4c3.5,1.7,7.3,2.2,11,3c1.1,2.3-2.7,3.6-4.5,4c-4.3-0.8-9.2-2.8-11.4-6.7
		L1095.2,872.3L1095.2,872.3z"/>
	<path class="st1" d="M1076.2,878.3c3,0,5.9,0.5,8.8,1.2c-0.5,1-0.3,2.5-1.4,3C1080.4,883.1,1075.6,882.5,1076.2,878.3z"/>
	<path class="st1" d="M1088.7,882.4c5.8,0.8,11.6,1.2,17.5,1c-1.9,2.9-4.4,6-8.1,6.4C1094.7,887.8,1091.4,885.4,1088.7,882.4
		L1088.7,882.4z"/>
	<path class="st3" d="M713.8,891.9c0.7-3.5,1.6-6.9,3.1-10.1c2.1,4.4,3,9.2,5.9,13.2c-0.2,0.4-0.7,1.1-0.9,1.5c-2-3-3.2-6.4-4.4-9.7
		C716.3,888.5,715.1,890.2,713.8,891.9z"/>
	<path class="st1" d="M1081.8,890.8c3.4-0.8,6.9,0.2,9.9,2.1c-1.6,1.2-3,4.4-5.5,3.3C1084,895.1,1082.9,892.8,1081.8,890.8
		L1081.8,890.8z"/>
</g>
</svg>
